<svg width="600" height="373" viewBox="0 0 600 373" fill="none" xmlns="http://www.w3.org/2000/svg">
<g clip-path="url(#clip0)">
<path d="M7.55986 361.89C7.55986 367.739 12.1512 372.516 17.7221 372.516H567.86C573.461 372.516 578.022 367.739 578.022 361.89L582.613 30.9887C582.613 25.1399 576.032 13.7179 563.972 14.5753L26.3232 -0.000761985C19.2831 -0.184494 12.5185 2.63273 7.52925 7.83847C2.57057 13.0136 -0.153642 20.1179 -0.000596179 27.4672L7.55986 361.89Z" fill="url(#paint0_linear)"/>
<path d="M17.6002 350.836C17.6002 356.379 21.916 360.911 27.2114 360.911H554.576C559.871 360.911 564.187 356.379 564.187 350.836L568.503 50.71C567.983 32.643 552.862 26.1512 543.679 26.5493L28.4358 12.065C23.5077 11.9119 18.7327 13.9024 15.2433 17.5464C11.7538 21.1904 9.82544 26.1818 9.94788 31.3263L17.6002 350.836Z" fill="#0E9B6C"/>
<path d="M558.525 199.625C558.525 199.625 558.494 199.625 558.525 199.625C557.79 199.625 557.208 199.012 557.208 198.308L557.545 175.035C557.545 174.3 558.157 173.78 558.861 173.749C559.596 173.749 560.147 174.362 560.147 175.066L559.81 198.339C559.81 199.043 559.229 199.625 558.525 199.625Z" fill="#08724F"/>
<path d="M559.351 142.576C558.616 142.576 558.035 141.964 558.035 141.259L559.351 52.088C559.32 46.7598 557.698 42.5033 554.545 39.4717C548.638 33.8067 539.271 34.1129 538.874 34.1129L374.196 29.7033C373.462 29.6727 372.911 29.0909 372.941 28.356C372.972 27.6517 373.554 27.1005 374.258 27.1005H374.288L538.874 31.51C539.884 31.4488 549.801 31.2957 556.351 37.5732C560.055 41.1253 561.953 45.9942 561.953 52.088L560.637 141.29C560.667 141.994 560.086 142.576 559.351 142.576Z" fill="#08724F"/>
<path d="M186.44 87.1196C188.705 87.1196 190.266 88.8038 190.266 91.0698V328.543C190.266 330.809 188.43 332.647 186.165 332.677L43.5261 333.688C41.2917 333.688 39.4857 331.942 39.3939 329.707L31.4355 91.2229C31.4049 90.1205 31.8334 89.0181 32.5987 88.222C33.3639 87.4258 34.4658 86.9665 35.5678 86.9665H186.532L186.44 87.1196ZM186.103 85.0985H35.5371C33.9149 85.0985 32.3538 85.7416 31.2213 86.9052C30.0887 88.0688 29.4765 89.6306 29.5378 91.2842L37.4961 329.554C37.6186 332.8 40.251 335.127 43.4955 335.127H43.5261L186.134 334.3C189.44 334.27 192.103 331.82 192.103 328.513V91.0698C192.103 87.7626 189.47 85.0985 186.165 85.0985H186.103Z" fill="#08724F"/>
<path d="M366.881 87.1196C369.146 87.1196 370.921 88.6507 370.921 90.9167L371.074 333.259H224.089C221.855 333.259 220.049 331.728 219.957 329.493L211.999 91.0698C211.968 89.9674 212.397 88.9263 213.162 88.1301C213.927 87.3339 215.029 86.9358 216.131 86.9358H367.095L366.881 87.1196ZM366.697 85.0985H216.131C214.509 85.0985 212.948 85.7416 211.815 86.9052C210.683 88.0688 210.07 89.6306 210.132 91.2842L218.09 329.584C218.212 332.83 220.845 335.158 224.089 335.158H372.911L372.697 90.8555C372.697 87.5483 370.003 85.0985 366.697 85.0985Z" fill="#08724F"/>
<path d="M543.251 87.1196C545.516 87.1196 547.077 88.8038 547.077 91.0698V333.627C547.077 334.729 546.618 335.801 545.822 336.597C545.057 337.362 544.016 337.761 542.945 337.761H542.822L400.214 333.872C398.041 333.81 396.266 332.065 396.204 329.891L388.215 91.1923C388.185 90.0899 388.613 88.9875 389.378 88.1913C390.144 87.3952 391.246 86.9358 392.348 86.9358H543.312L543.251 87.1196ZM542.914 85.0985H392.348C390.725 85.0985 389.164 85.7416 388.032 86.9052C386.899 88.0688 386.287 89.6306 386.348 91.2842L394.337 329.983C394.429 333.167 397 335.709 400.184 335.77L542.792 339.659C542.853 339.659 542.914 339.659 542.945 339.659C544.506 339.659 546.006 339.047 547.138 337.944C548.301 336.811 548.975 335.25 548.975 333.657V91.0698C548.975 87.7626 546.342 85.0985 543.036 85.0985H542.914Z" fill="#08724F"/>
<path d="M183.991 27.1311L36.9758 25.4775C34.8331 25.4469 32.8741 26.3043 31.3437 27.8048C29.8132 29.3359 29.0786 31.3875 29.0786 33.5617V68.5626C29.0786 73.0334 32.3538 76.3406 36.8227 76.3406H183.777C188.246 76.3406 192.195 73.0028 192.195 68.5626V35.2153C192.133 30.7751 188.399 27.1923 183.991 27.1311Z" fill="#40D3A2"/>
<path d="M372.942 34.6028L218.825 27.4679C216.559 27.376 214.325 28.2335 212.733 29.8258C211.142 31.4488 210.285 33.6535 210.407 35.9196L212.06 68.7464C212.274 73.0028 215.733 76.3406 219.988 76.4019L365.32 78.9435C369.605 79.0047 373.217 75.7282 373.523 71.4411L375.941 37.8794C376.002 37.0526 375.727 36.2258 375.176 35.5827C374.564 35.0315 373.768 34.6335 372.942 34.6028Z" fill="#40D3A2"/>
<path d="M542.914 41.4928L395.562 38.0019C392.99 37.9406 390.756 39.8086 390.419 42.3502L386.807 69.665C386.593 71.3492 387.083 73.064 388.185 74.3808C389.287 75.6669 390.909 76.4325 392.623 76.4631L542.485 79.066C544.108 79.0966 545.822 78.4841 546.954 77.3511C548.087 76.2181 548.913 74.687 548.913 73.064V47.5253C548.913 44.2181 546.158 41.554 542.914 41.4928Z" fill="#40D3A2"/>
<path d="M70.6152 43.2076H56.382C54.8209 43.2076 53.5659 44.4631 53.5659 46.0248C53.5659 47.9234 54.5148 48.8421 56.4126 48.8421H60.2999V64.4286C60.2999 65.9904 61.2488 66.9703 62.8099 66.9703H63.5139C65.8708 66.9703 67.1564 66.2354 67.1564 64.1837V48.8421H70.6152C72.513 48.8421 73.4618 47.9234 73.4618 46.0248C73.4618 44.1263 72.513 43.2076 70.6152 43.2076Z" fill="#F7F9F8"/>
<path d="M87.4502 42.5033C83.7159 42.5033 80.655 43.667 78.2675 45.9636C75.8799 48.2603 74.7168 51.2918 74.7168 54.9971C74.7168 58.7024 75.9106 61.7339 78.2981 64.0306C80.6856 66.3272 83.7159 67.4909 87.4196 67.4909C91.1233 67.4909 94.1536 66.3579 96.5717 64.0306C98.9898 61.7339 100.184 58.733 100.184 54.9971C100.184 51.2918 98.9898 48.2603 96.6329 45.9636C94.2454 43.6363 91.1845 42.5033 87.4502 42.5033ZM91.7355 59.4373C90.6642 60.6009 89.2255 61.2134 87.4502 61.2134C85.6749 61.2134 84.2362 60.6315 83.1649 59.4679C82.0936 58.3043 81.5426 56.8344 81.5426 55.0277C81.5426 53.221 82.0936 51.7512 83.1649 50.5569C84.2362 49.3627 85.6749 48.7808 87.4502 48.7808C89.2255 48.7808 90.6642 49.3627 91.7355 50.5569C92.8068 51.7205 93.3271 53.221 93.3271 54.9971C93.3271 56.7732 92.8068 58.243 91.7355 59.4373Z" fill="#F7F9F8"/>
<path d="M121.182 43.2076H113.346C111.785 43.2076 110.897 44.4631 110.897 46.0248V64.398C110.897 65.9598 111.785 66.9703 113.346 66.9703H121.182C125.099 66.3578 127.824 64.4899 129.293 60.6009C130.028 58.7942 130.395 57.0181 130.395 55.1808C130.395 53.3129 130.028 51.5368 129.293 49.6995C127.824 45.8105 125.13 43.2076 121.182 43.2076ZM118.947 62.3157L117.784 62.2851V47.5866H118.855C122.192 47.5866 123.936 50.2507 123.936 54.7827C123.936 59.3148 122.314 61.9789 118.947 62.3157Z" fill="#F7F9F8"/>
<path d="M153.566 45.9636C151.209 43.667 148.148 42.5033 144.414 42.5033C140.679 42.5033 137.619 43.667 135.231 45.9636C132.844 48.2603 131.68 51.2918 131.68 54.9971C131.68 58.7024 132.874 61.7339 135.262 64.0306C137.649 66.3272 140.68 67.4909 144.383 67.4909C148.087 67.4909 151.117 66.3579 153.535 64.0306C155.953 61.7339 157.147 58.733 157.147 54.9971C157.117 51.2918 155.923 48.2603 153.566 45.9636ZM148.668 59.4373C147.597 60.6009 146.159 61.2134 144.383 61.2134C142.608 61.2134 141.169 60.6315 140.098 59.4679C139.027 58.3043 138.476 56.8344 138.476 55.0277C138.476 53.221 139.027 51.7512 140.098 50.5569C141.169 49.3627 142.608 48.7808 144.383 48.7808C146.159 48.7808 147.597 49.3627 148.668 50.5569C149.74 51.7205 150.26 53.221 150.26 54.9971C150.26 56.7732 149.74 58.243 148.668 59.4373Z" fill="#F7F9F8"/>
<path d="M248.638 43.2076H240.802C239.241 43.2076 238.384 44.4631 238.384 46.0249V64.3981C238.384 65.9598 239.241 66.9703 240.802 66.9703H248.638C252.556 66.3579 255.28 64.4899 256.749 60.6009C257.484 58.7942 257.851 57.0182 257.851 55.1808C257.851 53.3129 257.484 51.5368 256.749 49.6995C255.28 45.8105 252.586 43.2076 248.638 43.2076ZM246.403 62.3158L245.24 62.2851V47.5866H246.281C249.617 47.5866 251.362 50.2507 251.362 54.7828C251.393 59.3148 249.77 61.9789 246.403 62.3158Z" fill="#F7F9F8"/>
<path d="M271.84 42.5033C268.105 42.5033 265.044 43.667 262.657 45.9636C260.269 48.2603 259.106 51.2918 259.106 54.9971C259.106 58.7024 260.3 61.7339 262.687 64.0306C265.075 66.3272 268.105 67.4909 271.809 67.4909C275.513 67.4909 278.543 66.3579 280.961 64.0306C283.379 61.7339 284.573 58.733 284.573 54.9971C284.573 51.2918 283.379 48.2603 281.022 45.9636C278.635 43.6363 275.574 42.5033 271.84 42.5033ZM276.125 59.4373C275.054 60.6009 273.615 61.2134 271.84 61.2134C270.064 61.2134 268.626 60.6315 267.554 59.4679C266.483 58.3043 265.932 56.8344 265.932 55.0277C265.932 53.221 266.483 51.7512 267.554 50.5569C268.626 49.3627 270.064 48.7808 271.84 48.7808C273.615 48.7808 275.054 49.3627 276.125 50.5569C277.196 51.7205 277.717 53.221 277.717 54.9971C277.717 56.7732 277.196 58.243 276.125 59.4373Z" fill="#F7F9F8"/>
<path d="M290.297 43.2076H289.593C287.236 43.2076 286.471 44.2182 286.471 46.3005V64.3981C286.471 65.9598 287.328 66.9703 288.889 66.9703H289.593C291.95 66.9703 293.358 66.2048 293.358 64.1531V46.0555C293.358 44.4631 291.858 43.2076 290.297 43.2076Z" fill="#F7F9F8"/>
<path d="M313.652 43.2076H312.948C310.591 43.2076 309.611 44.2182 309.611 46.3005V53.9253L301.775 44.6775C301.132 43.6976 300 43.2076 298.5 43.2076H297.949C296.388 43.2076 295.286 44.4938 295.286 46.0249V64.3981C295.286 65.9598 296.235 66.9703 297.796 66.9703H298.5C300.857 66.9703 302.173 66.2048 302.173 64.1531V56.4976L310.009 65.8985C310.774 66.7866 312.091 67.2459 313.376 67.2459C315.733 67.2459 317.172 66.2048 317.172 64.1531V46.0555C317.11 44.4631 315.213 43.2076 313.652 43.2076Z" fill="#F7F9F8"/>
<path d="M337.71 51.9655H332.109C330.548 51.9655 329.599 53.7722 329.599 55.3339V55.487C329.599 57.4775 330.334 58.2124 332.476 58.2124H333.976V60.3866C333.364 60.8765 332.293 61.1215 330.609 61.1215C328.926 61.1521 327.487 60.5703 326.446 59.4067C325.436 58.243 324.855 56.7732 324.855 54.9665C324.855 53.1598 325.283 51.6593 326.201 50.465C327.12 49.2708 328.528 48.689 330.425 48.7196C332.323 48.7502 333.854 49.0564 334.986 49.6076C336.119 50.1894 336.976 50.465 337.588 50.465C338.2 50.465 338.782 50.0976 339.424 49.3933C340.037 48.689 340.343 47.8622 340.312 46.9435C340.282 46.0248 339.394 45.0449 337.68 44.0038C335.935 42.9626 333.395 42.4421 330.089 42.4421C326.752 42.4421 323.906 43.6057 321.549 45.9024C319.161 48.199 317.998 51.2306 317.998 54.9358C317.998 58.6411 319.192 61.6727 321.579 63.9693C323.967 66.266 326.936 67.4296 330.517 67.4296C334.099 67.4296 336.792 66.9397 338.384 65.9291C339.945 64.9186 340.894 63.6937 340.894 62.2239V55.3033C340.863 53.7722 339.302 51.9655 337.71 51.9655Z" fill="#F7F9F8"/>
<path d="M429.232 47.5866H421.396C419.835 47.5866 418.978 48.8421 418.978 50.4038V68.777C418.978 70.3387 419.835 71.3492 421.396 71.3492H429.232C433.15 70.7368 435.874 68.8689 437.343 64.9799C438.078 63.1732 438.445 61.3971 438.445 59.5598C438.445 57.6918 438.078 55.9158 437.343 54.0784C435.874 50.1895 433.15 47.5866 429.232 47.5866ZM426.997 66.6947L425.834 66.6641V51.9655H426.875C430.211 51.9655 431.956 54.6296 431.956 59.1617C431.986 63.6937 430.364 66.3579 426.997 66.6947Z" fill="#F7F9F8"/>
<path d="M452.433 46.8823C448.699 46.8823 445.638 48.0459 443.251 50.3425C440.863 52.6392 439.7 55.6708 439.7 59.376C439.7 63.0813 440.894 66.1129 443.281 68.4095C445.669 70.7062 448.699 71.8698 452.403 71.8698C456.107 71.8698 459.137 70.7368 461.555 68.4095C463.973 66.1129 465.167 63.1119 465.167 59.376C465.167 55.6708 463.973 52.6392 461.616 50.3425C459.229 48.0153 456.168 46.8823 452.433 46.8823ZM456.688 63.8162C455.617 64.9799 454.178 65.5923 452.403 65.5923C450.627 65.5923 449.189 65.0105 448.117 63.8468C447.046 62.6832 446.495 61.2134 446.495 59.4067C446.495 57.6 447.046 56.1301 448.117 54.9358C449.189 53.7416 450.627 53.1598 452.403 53.1598C454.178 53.1598 455.617 53.7416 456.688 54.9358C457.759 56.1301 458.28 57.6 458.28 59.376C458.28 61.1521 457.759 62.622 456.688 63.8162Z" fill="#F7F9F8"/>
<path d="M485.399 47.5866H484.695C482.339 47.5866 481.42 48.5971 481.42 50.6794V58.3043L473.523 49.0564C472.88 48.0765 471.717 47.5866 470.217 47.5866H469.697C468.136 47.5866 467.065 48.8727 467.065 50.4038V68.777C467.065 70.3387 467.922 71.3492 469.483 71.3492H470.187C472.544 71.3492 473.952 70.5837 473.952 68.532V60.8765L481.726 70.2775C482.492 71.1655 483.502 71.6248 484.818 71.6248C487.175 71.6248 488.338 70.5837 488.338 68.532V50.4344C488.307 48.8421 486.961 47.5866 485.399 47.5866Z" fill="#F7F9F8"/>
<path d="M501.99 65.7148H497.704V61.9789H501.377C503.214 61.9789 504.561 61.4583 504.561 59.5598V59.5292C504.561 57.9674 502.847 56.3445 501.286 56.3445H497.704V53.221H502.081C503.918 53.221 504.836 52.3024 504.836 50.4038C504.836 48.8421 503.581 47.5866 502.02 47.5866H492.868C491.307 47.5866 490.205 48.8421 490.205 50.4038V68.777C490.205 70.3387 491.307 71.3492 492.868 71.3492H502.112C503.949 71.3492 504.867 70.4306 504.867 68.532C504.806 66.9703 503.551 65.7148 501.99 65.7148Z" fill="#F7F9F8"/>
<path d="M187.756 133.022C187.756 138.656 183.196 143.219 177.563 143.219H45.5157C39.8836 143.219 35.3229 138.656 35.3229 133.022V100.93C35.3229 95.2957 39.8836 90.733 45.5157 90.733H177.563C183.196 90.733 187.756 95.2957 187.756 100.93V133.022V133.022Z" fill="#08724F"/>
<path d="M184.634 100.93C184.634 97.0105 181.451 93.8564 177.563 93.8564H45.5157C41.5977 93.8564 38.4449 97.0411 38.4449 100.93V133.022C38.4449 136.942 41.6283 140.096 45.5157 140.096H177.563C181.481 140.096 184.634 136.911 184.634 133.022V100.93V100.93Z" fill="#83EAC8"/>
<g opacity="0.6">
<path opacity="0.6" d="M172.758 102.4C172.758 104.237 171.258 105.738 169.421 105.738H73.0027C71.1661 105.738 69.6663 104.237 69.6663 102.4V102.186C69.6663 100.348 71.1661 98.8478 73.0027 98.8478H169.452C171.288 98.8478 172.788 100.348 172.788 102.186V102.4H172.758Z" fill="#0D9367"/>
<path opacity="0.6" d="M172.758 117.405C172.758 119.242 171.258 120.743 169.421 120.743H73.0027C71.1661 120.743 69.6663 119.242 69.6663 117.405V117.19C69.6663 115.353 71.1661 113.853 73.0027 113.853H169.452C171.288 113.853 172.788 115.353 172.788 117.19V117.405H172.758Z" fill="#0D9367"/>
<path opacity="0.6" d="M172.758 132.41C172.758 134.247 171.258 135.747 169.421 135.747H73.0027C71.1661 135.747 69.6663 134.247 69.6663 132.41V132.195C69.6663 130.358 71.1661 128.857 73.0027 128.857H169.452C171.288 128.857 172.788 130.358 172.788 132.195V132.41H172.758Z" fill="#0D9367"/>
</g>
<path opacity="0.6" d="M58.3104 98.8478H49.097C47.5054 98.8478 46.5259 100.44 46.5259 102.033V109.841C46.5259 111.188 47.2911 111.985 48.6073 111.985H58.2798C59.8715 111.985 61.4937 110.974 61.4937 109.382V102.033C61.5243 100.44 59.9021 98.8478 58.3104 98.8478Z" fill="#0D9367"/>
<path d="M367.707 132.685C367.707 138.166 363.269 142.637 357.759 142.637H228.926C223.447 142.637 218.978 138.197 218.978 132.685V101.298C218.978 95.8162 223.416 91.3454 228.926 91.3454H357.759C363.238 91.3454 367.707 95.7856 367.707 101.298V132.685Z" fill="#08724F"/>
<path d="M364.585 101.389C364.585 97.5923 361.494 94.4995 357.698 94.4995H229.017C225.222 94.4995 222.13 97.5923 222.13 101.389V132.593C222.13 136.39 225.222 139.483 229.017 139.483H357.698C361.494 139.483 364.585 136.39 364.585 132.593V101.389Z" fill="#83EAC8"/>
<path opacity="0.6" d="M353.352 103.104C353.352 104.911 351.913 106.35 350.107 106.35H255.984C254.178 106.35 252.74 104.911 252.74 103.104V102.706C252.74 100.899 254.178 99.4602 255.984 99.4602H350.107C351.913 99.4602 353.352 100.899 353.352 102.706V103.104V103.104Z" fill="#399976"/>
<path opacity="0.6" d="M353.352 117.497C353.352 119.303 351.913 120.742 350.107 120.742H255.984C254.178 120.742 252.74 119.303 252.74 117.497V117.098C252.74 115.292 254.178 113.853 255.984 113.853H350.107C351.913 113.853 353.352 115.292 353.352 117.098V117.497V117.497Z" fill="#399976"/>
<path opacity="0.6" d="M353.352 131.858C353.352 133.665 351.913 135.104 350.107 135.104H255.984C254.178 135.104 252.74 133.665 252.74 131.858V131.46C252.74 129.653 254.178 128.214 255.984 128.214H350.107C351.913 128.214 353.352 129.653 353.352 131.46V131.858V131.858Z" fill="#399976"/>
<path opacity="0.6" d="M241.69 99.4908H232.721C231.16 99.4908 230.242 100.808 230.242 102.369V109.964C230.242 111.28 230.946 111.985 232.262 111.985H241.69C243.251 111.985 244.628 111.066 244.628 109.504V102.339C244.628 100.808 243.251 99.4908 241.69 99.4908Z" fill="#399976"/>
<path d="M545.179 260.195C545.179 265.676 540.741 270.147 535.231 270.147H406.397C400.918 270.147 396.449 265.707 396.449 260.195V228.808C396.449 223.326 400.888 218.855 406.397 218.855H535.231C540.71 218.855 545.179 223.296 545.179 228.808V260.195Z" fill="#08724F"/>
<path d="M542.057 228.899C542.057 225.102 538.965 222.009 535.17 222.009H406.489C402.694 222.009 399.602 225.102 399.602 228.899V260.103C399.602 263.9 402.694 266.993 406.489 266.993H535.17C538.965 266.993 542.057 263.9 542.057 260.103V228.899Z" fill="#83EAC8"/>
<path opacity="0.6" d="M530.793 230.645C530.793 232.452 529.354 233.891 527.548 233.891H433.425C431.619 233.891 430.181 232.452 430.181 230.645V230.247C430.181 228.44 431.619 227.001 433.425 227.001H527.548C529.354 227.001 530.793 228.44 530.793 230.247V230.645Z" fill="#399976"/>
<path opacity="0.6" d="M530.793 245.007C530.793 246.813 529.354 248.253 527.548 248.253H433.425C431.619 248.253 430.181 246.813 430.181 245.007V244.608C430.181 242.802 431.619 241.363 433.425 241.363H527.548C529.354 241.363 530.793 242.802 530.793 244.608V245.007Z" fill="#399976"/>
<path opacity="0.6" d="M530.793 259.399C530.793 261.206 529.354 262.645 527.548 262.645H433.425C431.619 262.645 430.181 261.206 430.181 259.399V259.001C430.181 257.194 431.619 255.755 433.425 255.755H527.548C529.354 255.755 530.793 257.194 530.793 259.001V259.399Z" fill="#399976"/>
<path opacity="0.6" d="M419.161 227.001H410.193C408.632 227.001 407.714 228.318 407.714 229.879V237.474C407.714 238.79 408.418 239.495 409.734 239.495H419.161C420.722 239.495 422.1 238.576 422.1 237.014V229.849C422.069 228.348 420.722 227.001 419.161 227.001Z" fill="#399976"/>
<path d="M542.057 138.932C542.057 144.413 537.619 148.884 532.109 148.884H403.275C397.796 148.884 393.327 144.444 393.327 138.932V107.544C393.327 102.063 397.765 97.5923 403.275 97.5923H532.109C537.588 97.5923 542.057 102.032 542.057 107.544V138.932Z" fill="#08724F"/>
<path d="M538.935 107.636C538.935 103.839 535.843 100.746 532.048 100.746H403.367C399.572 100.746 396.48 103.839 396.48 107.636V138.84C396.48 142.637 399.572 145.73 403.367 145.73H532.048C535.843 145.73 538.935 142.637 538.935 138.84V107.636V107.636Z" fill="#83EAC8"/>
<path opacity="0.6" d="M527.671 109.351C527.671 111.158 526.232 112.597 524.426 112.597H430.303C428.497 112.597 427.058 111.158 427.058 109.351V108.953C427.058 107.146 428.497 105.707 430.303 105.707H524.426C526.232 105.707 527.671 107.146 527.671 108.953V109.351Z" fill="#399976"/>
<path opacity="0.6" d="M527.671 123.743C527.671 125.55 526.232 126.989 524.426 126.989H430.303C428.497 126.989 427.058 125.55 427.058 123.743V123.345C427.058 121.539 428.497 120.099 430.303 120.099H524.426C526.232 120.099 527.671 121.539 527.671 123.345V123.743Z" fill="#399976"/>
<path opacity="0.6" d="M527.671 138.105C527.671 139.912 526.232 141.351 524.426 141.351H430.303C428.497 141.351 427.058 139.912 427.058 138.105V137.707C427.058 135.9 428.497 134.461 430.303 134.461H524.426C526.232 134.461 527.671 135.9 527.671 137.707V138.105Z" fill="#399976"/>
<path opacity="0.6" d="M416.039 105.738H407.071C405.51 105.738 404.591 107.054 404.591 108.616V116.21C404.591 117.527 405.295 118.232 406.612 118.232H416.039C417.6 118.232 418.978 117.313 418.978 115.751V108.586C418.947 107.054 417.6 105.738 416.039 105.738Z" fill="#399976"/>
<path d="M418.763 107.422L416.835 105.86C416.713 105.768 416.529 105.707 416.376 105.707C416.192 105.738 416.039 105.799 415.947 105.952L410.989 112.076C410.713 112.413 410.254 112.475 409.917 112.199L408.571 111.158C408.448 111.066 408.264 111.005 408.111 111.035C407.958 111.066 407.805 111.158 407.683 111.28L406.183 113.24C406.091 113.363 406.03 113.546 406.061 113.699C406.091 113.883 406.183 114.006 406.305 114.128L410.07 117.007C410.683 117.466 411.509 117.374 411.999 116.792L418.886 108.31C419.07 108.034 419.039 107.636 418.763 107.422Z" fill="url(#paint1_linear)"/>
<path d="M545.179 202.075C545.179 207.556 540.741 212.027 535.231 212.027H406.397C400.918 212.027 396.449 207.586 396.449 202.075V170.687C396.449 165.206 400.888 160.735 406.397 160.735H535.231C540.71 160.735 545.179 165.175 545.179 170.687V202.075Z" fill="#08724F"/>
<path d="M542.057 170.779C542.057 166.982 538.965 163.889 535.17 163.889H406.489C402.694 163.889 399.602 166.982 399.602 170.779V201.983C399.602 205.78 402.694 208.873 406.489 208.873H535.17C538.965 208.873 542.057 205.78 542.057 201.983V170.779Z" fill="#83EAC8"/>
<path opacity="0.6" d="M530.793 172.494C530.793 174.3 529.354 175.74 527.548 175.74H433.425C431.619 175.74 430.181 174.3 430.181 172.494V172.096C430.181 170.289 431.619 168.85 433.425 168.85H527.548C529.354 168.85 530.793 170.289 530.793 172.096V172.494Z" fill="#399976"/>
<path opacity="0.6" d="M530.793 186.886C530.793 188.693 529.354 190.132 527.548 190.132H433.425C431.619 190.132 430.181 188.693 430.181 186.886V186.488C430.181 184.681 431.619 183.242 433.425 183.242H527.548C529.354 183.242 530.793 184.681 530.793 186.488V186.886Z" fill="#399976"/>
<path opacity="0.6" d="M530.793 201.248C530.793 203.054 529.354 204.494 527.548 204.494H433.425C431.619 204.494 430.181 203.054 430.181 201.248V200.88C430.181 199.074 431.619 197.634 433.425 197.634H527.548C529.354 197.634 530.793 199.074 530.793 200.88V201.248Z" fill="#399976"/>
<path opacity="0.6" d="M419.161 168.88H410.193C408.632 168.88 407.714 170.197 407.714 171.759V179.353C407.714 180.67 408.418 181.374 409.734 181.374H419.161C420.722 181.374 422.1 180.455 422.1 178.894V171.728C422.069 170.197 420.722 168.88 419.161 168.88Z" fill="#399976"/>
<path d="M420.63 170.565L418.702 169.003C418.58 168.911 418.396 168.85 418.243 168.85C418.059 168.88 417.906 168.942 417.814 169.095L412.856 175.219C412.58 175.556 412.121 175.617 411.784 175.342L410.438 174.3C410.315 174.209 410.132 174.147 409.978 174.178C409.825 174.209 409.672 174.3 409.55 174.423L408.05 176.383C407.958 176.505 407.897 176.689 407.928 176.842C407.958 177.026 408.05 177.148 408.173 177.271L411.937 180.149C412.55 180.608 413.376 180.517 413.866 179.935L420.753 171.453C420.967 171.177 420.906 170.779 420.63 170.565Z" fill="url(#paint2_linear)"/>
<path d="M38.0778 111.219L36.3637 111.862L36.3024 111.893C35.9657 112.015 35.5984 111.862 35.5066 111.525C35.3842 111.188 35.5372 110.821 35.8739 110.729L37.6798 110.055C38.0165 109.933 38.3532 110.117 38.4757 110.423C38.5981 110.76 38.4145 111.097 38.1084 111.219H38.0778Z" fill="white"/>
<path d="M32.66 113.914L31.2519 115.047L31.1907 115.077C30.9152 115.292 30.5173 115.261 30.2724 114.986C30.0582 114.71 30.0888 114.312 30.3643 114.067L31.8947 112.842C32.1702 112.628 32.5681 112.658 32.813 112.934C33.0273 113.21 32.9967 113.608 32.7212 113.822L32.66 113.914Z" fill="white"/>
<path d="M28.5278 118.232L27.6095 119.793L27.5789 119.854C27.3952 120.161 26.9973 120.283 26.6606 120.099C26.3545 119.916 26.2321 119.518 26.4158 119.181L27.3952 117.497C27.5789 117.19 27.9768 117.068 28.3135 117.252C28.6196 117.435 28.742 117.833 28.5584 118.17L28.5278 118.232Z" fill="white"/>
<path d="M26.1095 123.743L25.7116 125.52V125.581C25.6198 125.948 25.2525 126.193 24.8852 126.101C24.5179 126.009 24.273 125.642 24.3648 125.275L24.7934 123.407C24.8852 123.039 25.2525 122.825 25.6198 122.886C25.9871 122.978 26.2014 123.345 26.1402 123.713L26.1095 123.743Z" fill="white"/>
<path d="M25.2831 129.745V131.583V131.613C25.2831 132.011 24.9771 132.318 24.5791 132.318C24.1812 132.318 23.8751 132.011 23.8751 131.613V129.684C23.8751 129.286 24.1812 128.98 24.5791 128.98C24.9771 128.98 25.2831 129.286 25.2831 129.684V129.745Z" fill="white"/>
<path d="M25.6811 135.839L25.9871 137.646V137.676C26.0484 138.075 25.8035 138.442 25.4056 138.534C25.0077 138.595 24.6403 138.35 24.5485 137.952L24.2424 136.084C24.1812 135.686 24.4567 135.319 24.824 135.257C25.2219 135.196 25.5892 135.441 25.6504 135.839H25.6811Z" fill="white"/>
<path d="M27.0279 141.841L27.5789 143.617V143.648C27.7013 144.046 27.4871 144.475 27.0892 144.597C26.6912 144.72 26.2627 144.505 26.1403 144.107L25.5893 142.3C25.4669 141.902 25.6811 141.504 26.0791 141.382C26.477 141.198 26.8749 141.443 27.0279 141.841Z" fill="white"/>
<path d="M29.1093 147.629L29.8439 149.313V149.343C30.0276 149.742 29.8439 150.17 29.446 150.354C29.0481 150.538 28.6196 150.354 28.4359 149.956L27.6707 148.21C27.5176 147.812 27.6707 147.384 28.0686 147.2C28.4971 147.047 28.9563 147.231 29.1093 147.629Z" fill="white"/>
<path d="M31.7723 153.232L32.66 154.855V154.886C32.8742 155.284 32.7212 155.743 32.3539 155.958C31.9559 156.172 31.4968 156.019 31.2825 155.652L30.3949 153.967C30.1806 153.6 30.3337 153.11 30.7316 152.896C31.0989 152.681 31.558 152.834 31.7723 153.232Z" fill="white"/>
<path d="M34.8332 158.591L35.8127 160.153C36.0575 160.52 35.9351 161.041 35.5678 161.255C35.2005 161.5 34.6801 161.378 34.4659 161.01L33.4558 159.418C33.2109 159.051 33.3333 158.561 33.7006 158.316C34.0986 158.101 34.5883 158.224 34.8332 158.591Z" fill="white"/>
<path d="M38.292 163.766L39.3939 165.267C39.6694 165.634 39.5776 166.155 39.2103 166.431C38.843 166.706 38.3226 166.614 38.0471 166.247L36.9452 164.716C36.6697 164.348 36.7616 163.828 37.1289 163.583C37.4962 163.307 38.0165 163.368 38.292 163.766Z" fill="white"/>
<path d="M42.0263 168.697L43.1894 170.136C43.4955 170.503 43.4343 171.024 43.067 171.33C42.6997 171.636 42.1793 171.575 41.8732 171.208L40.6795 169.738C40.404 169.37 40.4346 168.85 40.8019 168.543C41.1998 168.268 41.7202 168.329 42.0263 168.697Z" fill="white"/>
<path d="M46.0055 173.443L47.2605 174.821C47.5666 175.188 47.5666 175.709 47.1993 176.046C46.832 176.352 46.3116 176.352 45.9749 175.985L44.72 174.576C44.4139 174.209 44.4445 173.688 44.7812 173.351C45.1485 173.045 45.6995 173.076 46.0055 173.443Z" fill="white"/>
<path d="M50.2601 177.975L51.5763 179.292C51.913 179.629 51.913 180.21 51.5763 180.547C51.2396 180.884 50.6581 180.884 50.3214 180.547L49.0052 179.2C48.6685 178.863 48.6685 178.281 49.0358 177.944C49.3419 177.638 49.8928 177.638 50.2601 177.975Z" fill="white"/>
<path d="M54.6679 182.354L56.0147 183.609C56.382 183.946 56.4126 184.528 56.0453 184.896C55.7086 185.263 55.1271 185.294 54.7597 184.926L53.3823 183.64C53.015 183.303 53.015 182.721 53.3517 182.354C53.7496 182.017 54.3006 181.987 54.6679 182.354Z" fill="white"/>
<path d="M59.2592 186.519L60.6672 187.743C61.0345 188.08 61.0958 188.662 60.7591 189.03C60.4224 189.397 59.8408 189.458 59.4735 189.121L58.0655 187.897C57.6982 187.56 57.6369 187.009 57.9736 186.61C58.3103 186.212 58.8919 186.182 59.2592 186.519Z" fill="white"/>
<path d="M64.0343 190.53L65.5036 191.694C65.9015 192 65.9627 192.582 65.6566 192.98C65.3505 193.378 64.769 193.439 64.371 193.133L62.9018 191.939C62.5039 191.632 62.4427 191.051 62.7488 190.653C63.0548 190.254 63.6364 190.193 64.0343 190.53Z" fill="white"/>
<path d="M68.9318 194.327L70.4316 195.43C70.8295 195.736 70.9213 196.318 70.6153 196.716C70.3092 197.114 69.7276 197.206 69.3297 196.899L67.8298 195.766C67.4319 195.46 67.3401 194.878 67.6462 194.48C67.9217 194.113 68.5032 194.021 68.9318 194.327Z" fill="white"/>
<path d="M73.9517 198.002L75.4822 199.074C75.9107 199.38 76.0025 199.962 75.727 200.36C75.4209 200.788 74.8394 200.88 74.4414 200.605L72.8804 199.533C72.4518 199.227 72.36 198.676 72.6355 198.247C72.9416 197.788 73.5232 197.696 73.9517 198.002Z" fill="white"/>
<path d="M79.1245 201.462L80.6856 202.473C81.1141 202.748 81.2366 203.33 80.9611 203.759C80.6856 204.188 80.104 204.31 79.6755 204.034L78.0838 203.024C77.6553 202.748 77.5329 202.166 77.8083 201.738C78.0838 201.309 78.6654 201.186 79.1245 201.462Z" fill="white"/>
<path d="M84.3894 204.769L85.981 205.719C86.4402 205.994 86.5626 206.576 86.3178 207.005C86.0423 207.464 85.4607 207.586 85.0322 207.341L83.4099 206.362C82.9507 206.086 82.8283 205.504 83.0732 205.075C83.3487 204.647 83.9302 204.494 84.3894 204.769Z" fill="white"/>
<path d="M89.746 207.923L91.3683 208.842C91.8274 209.087 91.9805 209.669 91.7356 210.128C91.4907 210.587 90.9091 210.741 90.45 210.496L88.7971 209.577C88.338 209.332 88.1849 208.75 88.4298 208.291C88.7053 207.801 89.2869 207.648 89.746 207.923Z" fill="white"/>
<path d="M95.225 210.863L96.8779 211.721C97.337 211.966 97.5207 212.547 97.3064 213.007C97.0615 213.466 96.48 213.65 96.0208 213.435L94.3373 212.578C93.8782 212.333 93.6945 211.751 93.9394 211.292C94.1537 210.802 94.7352 210.618 95.225 210.863Z" fill="white"/>
<path d="M100.796 213.65L102.479 214.446C102.969 214.66 103.153 215.242 102.938 215.732C102.724 216.222 102.143 216.406 101.653 216.191L99.9388 215.395C99.449 215.181 99.2654 214.599 99.4796 214.109C99.7245 213.619 100.306 213.405 100.796 213.65Z" fill="white"/>
<path d="M106.428 216.222L108.142 216.957C108.632 217.171 108.877 217.753 108.662 218.243C108.448 218.733 107.867 218.978 107.377 218.764L105.663 217.998C105.173 217.784 104.959 217.202 105.173 216.712C105.357 216.253 105.938 216.008 106.428 216.222Z" fill="white"/>
<path d="M112.182 218.641L113.927 219.315C114.417 219.498 114.692 220.08 114.478 220.57C114.294 221.06 113.713 221.336 113.223 221.121L111.478 220.417C110.989 220.233 110.744 219.652 110.927 219.162C111.08 218.672 111.662 218.427 112.182 218.641Z" fill="white"/>
<path d="M117.998 220.846L119.743 221.489C120.263 221.673 120.508 222.224 120.324 222.744C120.141 223.265 119.59 223.51 119.07 223.326L117.294 222.683C116.774 222.499 116.529 221.948 116.713 221.428C116.896 220.907 117.478 220.662 117.998 220.846Z" fill="white"/>
<path d="M123.875 222.867L125.651 223.449C126.171 223.602 126.446 224.184 126.293 224.704C126.14 225.225 125.559 225.5 125.038 225.347L123.232 224.765C122.712 224.582 122.437 224.031 122.59 223.51C122.773 222.989 123.324 222.683 123.875 222.867Z" fill="white"/>
<path d="M129.813 224.704L131.619 225.225C132.14 225.378 132.446 225.929 132.293 226.45C132.14 226.97 131.589 227.277 131.068 227.123L129.262 226.603C128.742 226.45 128.436 225.898 128.589 225.378C128.711 224.857 129.262 224.551 129.813 224.704Z" fill="white"/>
<path d="M135.782 226.388L137.588 226.848C138.139 227.001 138.445 227.521 138.323 228.073C138.17 228.624 137.649 228.93 137.098 228.808L135.262 228.348C134.711 228.195 134.405 227.675 134.527 227.123C134.711 226.572 135.262 226.235 135.782 226.388Z" fill="white"/>
<path d="M141.843 227.858L143.649 228.256C144.2 228.379 144.536 228.93 144.414 229.481C144.291 230.032 143.74 230.369 143.189 230.247L141.353 229.818C140.802 229.696 140.465 229.144 140.588 228.624C140.741 228.073 141.292 227.736 141.843 227.858Z" fill="white"/>
<path d="M147.903 229.175L149.74 229.542C150.291 229.634 150.658 230.186 150.536 230.737C150.444 231.288 149.893 231.655 149.342 231.533L147.505 231.165C146.954 231.043 146.587 230.522 146.71 229.971C146.832 229.42 147.352 229.053 147.903 229.175Z" fill="white"/>
<path d="M154.025 230.277L155.862 230.584C156.413 230.676 156.811 231.196 156.719 231.747C156.627 232.298 156.107 232.696 155.556 232.605L153.688 232.298C153.137 232.207 152.739 231.686 152.831 231.135C152.954 230.553 153.474 230.186 154.025 230.277Z" fill="white"/>
<path d="M160.177 231.196L162.014 231.441C162.565 231.502 162.963 232.023 162.902 232.605C162.84 233.156 162.32 233.554 161.739 233.493L159.871 233.248C159.32 233.186 158.923 232.666 158.984 232.084C159.106 231.533 159.627 231.135 160.177 231.196Z" fill="white"/>
<path d="M166.361 231.962L168.228 232.145C168.809 232.207 169.207 232.727 169.146 233.278C169.085 233.86 168.564 234.258 168.013 234.197L166.146 234.013C165.565 233.952 165.167 233.431 165.228 232.88C165.259 232.298 165.779 231.9 166.361 231.962Z" fill="white"/>
<path d="M172.544 232.513L174.411 232.635C174.992 232.666 175.421 233.186 175.39 233.738C175.36 234.319 174.839 234.748 174.288 234.718L172.421 234.595C171.84 234.564 171.411 234.044 171.442 233.493C171.472 232.911 171.962 232.452 172.544 232.513Z" fill="white"/>
<path d="M178.757 232.88L180.624 232.942C181.206 232.972 181.665 233.462 181.635 234.044C181.604 234.626 181.114 235.085 180.533 235.054L178.665 234.963C178.084 234.932 177.625 234.442 177.655 233.86C177.686 233.309 178.176 232.85 178.757 232.88Z" fill="white"/>
<path d="M184.971 233.064L186.838 233.095C187.42 233.095 187.879 233.585 187.879 234.166C187.879 234.748 187.389 235.208 186.807 235.208L184.91 235.177C184.328 235.177 183.869 234.687 183.869 234.105C183.9 233.523 184.389 233.064 184.971 233.064Z" fill="white"/>
<path d="M191.185 233.064L193.052 233.033C193.633 233.033 194.123 233.493 194.154 234.075C194.154 234.656 193.695 235.146 193.113 235.177L191.215 235.208C190.634 235.208 190.144 234.748 190.144 234.166C190.113 233.554 190.603 233.064 191.185 233.064Z" fill="white"/>
<path d="M197.398 232.88L199.265 232.788C199.847 232.758 200.367 233.217 200.398 233.799C200.429 234.381 199.969 234.901 199.388 234.932L197.521 235.024C196.939 235.054 196.419 234.595 196.388 234.013C196.358 233.401 196.817 232.911 197.398 232.88Z" fill="white"/>
<path d="M203.612 232.482L205.479 232.329C206.061 232.268 206.581 232.727 206.642 233.309C206.703 233.891 206.244 234.411 205.663 234.473L203.796 234.626C203.214 234.687 202.694 234.228 202.632 233.646C202.571 233.064 203 232.543 203.612 232.482Z" fill="white"/>
<path d="M209.795 231.931L211.662 231.717C212.244 231.655 212.795 232.084 212.856 232.666C212.917 233.248 212.489 233.799 211.907 233.86L210.04 234.075C209.458 234.136 208.907 233.707 208.846 233.125C208.754 232.513 209.183 231.992 209.795 231.931Z" fill="white"/>
<path d="M215.947 231.165L217.784 230.89C218.396 230.798 218.947 231.227 219.039 231.809C219.131 232.421 218.702 232.972 218.121 233.064L216.253 233.34C215.672 233.431 215.09 233.003 215.029 232.421C214.937 231.778 215.366 231.227 215.947 231.165Z" fill="white"/>
<path d="M222.1 230.186L223.936 229.849C224.548 229.757 225.099 230.155 225.222 230.737C225.314 231.349 224.916 231.9 224.334 232.023L222.467 232.36C221.855 232.452 221.304 232.054 221.181 231.472C221.09 230.859 221.488 230.277 222.1 230.186Z" fill="white"/>
<path d="M228.222 229.022L230.058 228.654C230.67 228.532 231.252 228.899 231.374 229.512C231.497 230.124 231.13 230.706 230.517 230.829L228.681 231.196C228.069 231.319 227.487 230.92 227.365 230.339C227.212 229.757 227.61 229.144 228.222 229.022Z" fill="white"/>
<path d="M234.282 227.705L236.088 227.276C236.7 227.123 237.282 227.491 237.435 228.103C237.588 228.716 237.221 229.298 236.609 229.451L234.772 229.879C234.16 230.032 233.578 229.665 233.425 229.053C233.303 228.44 233.67 227.858 234.282 227.705Z" fill="white"/>
<path d="M240.312 226.205L242.118 225.715C242.73 225.562 243.343 225.898 243.496 226.511C243.649 227.123 243.312 227.736 242.7 227.889L240.894 228.379C240.312 228.532 239.669 228.195 239.516 227.583C239.363 226.97 239.731 226.358 240.312 226.205Z" fill="white"/>
<path d="M246.312 224.521L248.087 224C248.668 223.816 249.311 224.153 249.495 224.765C249.679 225.347 249.342 225.99 248.73 226.174L246.924 226.695C246.342 226.878 245.699 226.542 245.516 225.929C245.363 225.317 245.699 224.704 246.312 224.521Z" fill="white"/>
<path d="M252.25 222.683L254.025 222.101C254.607 221.918 255.25 222.224 255.464 222.836C255.647 223.418 255.341 224.061 254.729 224.276L252.923 224.857C252.342 225.041 251.699 224.735 251.485 224.122C251.332 223.51 251.668 222.897 252.25 222.683Z" fill="white"/>
<path d="M258.157 220.723L259.902 220.111C260.484 219.897 261.157 220.203 261.371 220.815C261.586 221.397 261.279 222.071 260.667 222.285L258.892 222.898C258.31 223.112 257.637 222.806 257.453 222.193C257.239 221.581 257.545 220.907 258.157 220.723Z" fill="white"/>
<path d="M264.004 218.58L265.748 217.906C266.33 217.692 267.003 217.967 267.218 218.58C267.432 219.162 267.156 219.835 266.544 220.05L264.769 220.723C264.187 220.938 263.514 220.662 263.3 220.05C263.116 219.468 263.391 218.825 264.004 218.58Z" fill="white"/>
<path d="M269.819 216.344L271.564 215.64C272.146 215.395 272.819 215.701 273.064 216.283C273.309 216.865 273.003 217.539 272.421 217.784L270.676 218.488C270.095 218.733 269.422 218.427 269.177 217.845C268.932 217.232 269.207 216.589 269.819 216.344Z" fill="white"/>
<path d="M275.574 213.956L277.288 213.221C277.87 212.976 278.574 213.252 278.818 213.833C279.063 214.415 278.788 215.12 278.206 215.365L276.462 216.099C275.88 216.344 275.207 216.069 274.931 215.487C274.686 214.905 274.962 214.232 275.574 213.956Z" fill="white"/>
<path d="M281.267 211.506L282.981 210.741C283.563 210.465 284.267 210.741 284.512 211.322C284.787 211.904 284.512 212.609 283.93 212.853L282.216 213.619C281.634 213.895 280.93 213.619 280.686 213.037C280.41 212.455 280.686 211.751 281.267 211.506Z" fill="white"/>
<path d="M286.961 208.934L288.644 208.138C289.226 207.862 289.93 208.107 290.205 208.719C290.481 209.301 290.236 210.006 289.624 210.281L287.909 211.077C287.328 211.353 286.624 211.077 286.348 210.496C286.103 209.914 286.379 209.209 286.961 208.934Z" fill="white"/>
<path d="M292.623 206.3L294.307 205.504C294.888 205.229 295.592 205.474 295.868 206.055C296.143 206.637 295.898 207.342 295.317 207.617L293.633 208.413C293.052 208.689 292.348 208.444 292.072 207.862C291.766 207.28 292.011 206.576 292.623 206.3Z" fill="white"/>
<path d="M298.225 203.606L299.908 202.779C300.49 202.503 301.194 202.748 301.5 203.33C301.775 203.912 301.531 204.616 300.949 204.922L299.265 205.749C298.684 206.025 297.98 205.78 297.674 205.198C297.398 204.586 297.643 203.881 298.225 203.606Z" fill="white"/>
<path d="M303.826 200.85L305.51 200.023C306.091 199.747 306.795 199.962 307.071 200.543C307.346 201.125 307.132 201.83 306.55 202.105L304.867 202.932C304.285 203.208 303.581 202.993 303.275 202.411C303 201.83 303.245 201.125 303.826 200.85Z" fill="white"/>
<path d="M309.428 198.094L311.111 197.267C311.693 196.991 312.397 197.206 312.672 197.787C312.948 198.369 312.733 199.074 312.152 199.349L310.468 200.176C309.887 200.452 309.183 200.237 308.907 199.655C308.632 199.074 308.846 198.369 309.428 198.094Z" fill="white"/>
<path d="M315.06 195.338L316.743 194.511C317.325 194.235 318.029 194.48 318.304 195.062C318.58 195.644 318.335 196.348 317.753 196.624L316.07 197.451C315.488 197.726 314.784 197.512 314.509 196.93C314.233 196.318 314.478 195.613 315.06 195.338Z" fill="white"/>
<path d="M320.661 192.582L322.345 191.755C322.926 191.479 323.63 191.724 323.906 192.306C324.181 192.888 323.936 193.592 323.355 193.868L321.671 194.695C321.09 194.97 320.386 194.725 320.11 194.143C319.865 193.562 320.08 192.888 320.661 192.582Z" fill="white"/>
<path d="M326.324 189.887L328.007 189.091C328.589 188.815 329.262 189.06 329.538 189.642C329.813 190.224 329.568 190.898 328.987 191.173L327.303 191.969C326.722 192.245 326.048 192 325.773 191.418C325.497 190.867 325.742 190.163 326.324 189.887Z" fill="white"/>
<path d="M331.987 187.253L333.701 186.457C334.282 186.182 334.956 186.457 335.231 187.039C335.507 187.621 335.231 188.295 334.65 188.57L332.966 189.336C332.384 189.611 331.711 189.336 331.436 188.754C331.16 188.203 331.405 187.529 331.987 187.253Z" fill="white"/>
<path d="M337.71 184.651L339.425 183.885C340.006 183.64 340.679 183.885 340.955 184.467C341.2 185.049 340.955 185.722 340.373 185.998L338.659 186.764C338.078 187.009 337.404 186.764 337.129 186.182C336.853 185.6 337.129 184.926 337.71 184.651Z" fill="white"/>
<path d="M343.434 182.17L345.179 181.435C345.761 181.19 346.434 181.466 346.679 182.048C346.924 182.63 346.648 183.303 346.067 183.548L344.353 184.283C343.771 184.528 343.098 184.253 342.853 183.671C342.577 183.089 342.853 182.415 343.434 182.17Z" fill="white"/>
<path d="M349.22 179.751L350.964 179.047C351.546 178.802 352.219 179.108 352.434 179.69C352.678 180.272 352.372 180.945 351.791 181.16L350.046 181.864C349.464 182.109 348.791 181.833 348.546 181.221C348.362 180.639 348.638 179.996 349.22 179.751Z" fill="white"/>
<path d="M355.035 177.454L356.78 176.781C357.361 176.566 358.035 176.842 358.249 177.424C358.463 178.006 358.188 178.679 357.606 178.894L355.862 179.567C355.28 179.782 354.607 179.506 354.392 178.924C354.178 178.342 354.454 177.669 355.035 177.454Z" fill="white"/>
<path d="M360.943 175.25L362.718 174.607C363.3 174.392 363.942 174.698 364.157 175.28C364.371 175.862 364.065 176.505 363.483 176.72L361.739 177.332C361.157 177.546 360.514 177.24 360.3 176.658C360.024 176.107 360.33 175.464 360.943 175.25Z" fill="white"/>
<path d="M366.85 173.198L368.626 172.616C369.207 172.432 369.85 172.739 370.034 173.351C370.217 173.933 369.911 174.576 369.299 174.76L367.524 175.342C366.942 175.525 366.299 175.219 366.085 174.607C365.932 174.055 366.269 173.412 366.85 173.198Z" fill="white"/>
<path d="M372.85 171.33L374.656 170.779C375.237 170.595 375.88 170.932 376.064 171.544C376.247 172.157 375.911 172.769 375.298 172.953L373.523 173.474C372.942 173.657 372.299 173.32 372.115 172.708C371.901 172.126 372.238 171.483 372.85 171.33Z" fill="white"/>
<path d="M378.88 169.585L380.716 169.095C381.328 168.942 381.91 169.278 382.094 169.891C382.247 170.503 381.91 171.116 381.298 171.269L379.492 171.759C378.88 171.912 378.268 171.575 378.115 170.963C377.931 170.35 378.268 169.738 378.88 169.585Z" fill="white"/>
<path d="M384.971 168.054L386.807 167.625C387.42 167.502 388.001 167.87 388.154 168.452C388.277 169.064 387.909 169.646 387.328 169.799L385.522 170.228C384.91 170.381 384.328 169.983 384.175 169.401C383.991 168.788 384.359 168.207 384.971 168.054Z" fill="white"/>
<path d="M391.123 166.737L392.96 166.369C393.572 166.247 394.154 166.645 394.245 167.257C394.368 167.87 393.97 168.452 393.358 168.543L391.521 168.911C390.909 169.033 390.327 168.635 390.205 168.023C390.113 167.41 390.511 166.829 391.123 166.737Z" fill="white"/>
<path d="M397.306 165.604L399.174 165.328C399.786 165.236 400.337 165.665 400.428 166.247C400.52 166.859 400.092 167.41 399.51 167.502L397.674 167.778C397.062 167.87 396.511 167.472 396.419 166.859C396.296 166.277 396.694 165.696 397.306 165.604Z" fill="white"/>
<path d="M403.52 164.746L405.387 164.532C405.999 164.471 406.55 164.899 406.612 165.512C406.673 166.124 406.244 166.676 405.632 166.737L403.796 166.951C403.183 167.012 402.632 166.584 402.571 165.971C402.479 165.359 402.939 164.808 403.52 164.746Z" fill="white"/>
<path d="M409.795 164.165L411.693 164.042C412.305 164.011 412.825 164.471 412.856 165.053C412.886 165.665 412.427 166.186 411.846 166.216L409.979 166.339C409.366 166.369 408.846 165.91 408.815 165.328C408.724 164.716 409.183 164.195 409.795 164.165Z" fill="white"/>
<path d="M416.1 163.828L417.998 163.797C418.61 163.797 419.1 164.256 419.1 164.869C419.1 165.481 418.641 165.971 418.029 165.971L416.162 166.002H416.131C415.519 166.002 415.029 165.543 415.029 164.93C414.998 164.348 415.488 163.858 416.1 163.828Z" fill="white"/>
<path d="M422.375 163.828L424.273 163.889C424.855 163.92 425.314 164.409 425.314 164.991C425.283 165.573 424.793 166.032 424.212 166.032L422.345 165.971H422.314C421.732 165.971 421.243 165.451 421.273 164.869C421.304 164.287 421.794 163.797 422.375 163.828Z" fill="white"/>
<path d="M428.681 164.103L430.579 164.256C431.16 164.318 431.589 164.808 431.558 165.389C431.497 165.971 431.007 166.4 430.425 166.369L428.589 166.216H428.558C427.977 166.186 427.548 165.665 427.579 165.083C427.579 164.501 428.099 164.073 428.681 164.103Z" fill="white"/>
<path d="M434.956 164.746L436.823 164.991C437.404 165.053 437.802 165.604 437.71 166.155C437.649 166.737 437.098 167.135 436.547 167.043L434.711 166.798H434.68C434.099 166.737 433.701 166.186 433.762 165.634C433.854 165.053 434.374 164.654 434.956 164.746Z" fill="white"/>
<path d="M441.169 165.696L443.036 166.032C443.587 166.124 443.955 166.676 443.863 167.227C443.771 167.778 443.22 168.145 442.669 168.053L440.833 167.717H440.802C440.251 167.625 439.853 167.074 439.976 166.522C440.067 165.941 440.618 165.573 441.169 165.696Z" fill="white"/>
<path d="M447.352 166.951L449.189 167.41C449.74 167.533 450.077 168.084 449.924 168.635C449.801 169.187 449.25 169.523 448.699 169.37L446.893 168.942H446.863C446.312 168.819 445.975 168.268 446.097 167.717C446.25 167.166 446.801 166.829 447.352 166.951Z" fill="white"/>
<path d="M453.444 168.574L455.25 169.125C455.77 169.278 456.076 169.86 455.923 170.381C455.77 170.901 455.188 171.208 454.668 171.054L452.893 170.534H452.862C452.342 170.381 452.036 169.799 452.189 169.278C452.342 168.697 452.893 168.421 453.444 168.574Z" fill="white"/>
<path d="M459.443 170.503L461.218 171.146C461.739 171.33 462.014 171.912 461.8 172.402C461.616 172.922 461.035 173.198 460.545 172.984L458.8 172.371C458.28 172.187 458.004 171.606 458.188 171.085C458.341 170.595 458.923 170.32 459.443 170.503Z" fill="white"/>
<path d="M465.32 172.739L467.065 173.474C467.554 173.688 467.799 174.239 467.585 174.76C467.371 175.25 466.82 175.495 466.299 175.28L464.585 174.576C464.096 174.362 463.851 173.81 464.065 173.29C464.249 172.769 464.8 172.524 465.32 172.739Z" fill="white"/>
<path d="M471.074 175.25L472.789 176.046C473.278 176.26 473.493 176.842 473.248 177.332C473.033 177.822 472.452 178.036 471.962 177.791L470.279 177.026C469.789 176.811 469.575 176.23 469.789 175.74C470.034 175.219 470.585 175.005 471.074 175.25Z" fill="white"/>
<path d="M476.737 177.975L478.421 178.863C478.88 179.108 479.063 179.69 478.818 180.149C478.574 180.609 477.992 180.792 477.533 180.547L475.88 179.69C475.421 179.445 475.237 178.863 475.482 178.404C475.696 177.914 476.278 177.73 476.737 177.975Z" fill="white"/>
<path d="M482.277 181.007L483.9 181.956C484.359 182.231 484.481 182.783 484.236 183.242C483.961 183.701 483.41 183.824 482.951 183.579L481.359 182.63C480.9 182.354 480.747 181.803 481.022 181.343C481.237 180.884 481.818 180.731 482.277 181.007Z" fill="white"/>
<path d="M487.634 184.314L489.195 185.386C489.624 185.661 489.715 186.243 489.44 186.672C489.164 187.1 488.583 187.192 488.154 186.917L486.624 185.876C486.195 185.6 486.073 185.018 486.379 184.589C486.624 184.13 487.205 184.038 487.634 184.314Z" fill="white"/>
<path d="M492.807 187.958L494.307 189.121C494.705 189.428 494.766 190.009 494.46 190.408C494.154 190.806 493.572 190.867 493.174 190.561L491.705 189.428H491.674C491.276 189.121 491.215 188.54 491.521 188.142C491.827 187.713 492.378 187.652 492.807 187.958Z" fill="white"/>
<path d="M497.674 191.969L499.082 193.255C499.449 193.592 499.48 194.143 499.143 194.511C498.806 194.878 498.255 194.909 497.888 194.572L497.857 194.542L496.48 193.286L496.449 193.255C496.082 192.919 496.051 192.367 496.388 192C496.725 191.663 497.306 191.632 497.674 191.969Z" fill="white"/>
<path d="M502.173 196.41L503.428 197.818C503.734 198.186 503.704 198.737 503.367 199.043C503 199.349 502.479 199.319 502.143 198.982L502.112 198.951L500.857 197.573L500.826 197.542C500.49 197.175 500.52 196.624 500.888 196.318C501.316 196.042 501.867 196.042 502.173 196.41Z" fill="white"/>
<path d="M506.244 201.309L507.346 202.871C507.622 203.238 507.53 203.789 507.132 204.034C506.765 204.31 506.244 204.218 505.969 203.851L505.938 203.82L504.867 202.32L504.836 202.289C504.561 201.921 504.653 201.37 505.02 201.095C505.418 200.819 505.969 200.911 506.244 201.309Z" fill="white"/>
<path d="M509.672 206.637L510.56 208.321C510.774 208.72 510.621 209.21 510.223 209.424C509.826 209.638 509.336 209.485 509.122 209.087L509.091 209.056L508.203 207.433L508.173 207.403C507.958 207.005 508.111 206.484 508.509 206.27C508.968 206.086 509.458 206.239 509.672 206.637Z" fill="white"/>
<path d="M512.366 212.425L512.978 214.231C513.131 214.66 512.887 215.089 512.489 215.242C512.06 215.395 511.632 215.181 511.479 214.752V214.721L510.866 213.007V212.976C510.713 212.547 510.928 212.088 511.356 211.935C511.754 211.751 512.213 211.996 512.366 212.425Z" fill="white"/>
<path d="M514.08 218.549L514.386 220.448C514.448 220.876 514.172 221.275 513.744 221.336C513.315 221.397 512.917 221.121 512.856 220.693V220.662L512.55 218.855V218.825C512.489 218.396 512.764 217.998 513.193 217.937C513.59 217.845 514.019 218.12 514.08 218.549Z" fill="white"/>
<path d="M514.754 224.888V226.817C514.754 227.246 514.417 227.552 513.988 227.552C513.59 227.552 513.254 227.215 513.254 226.817V226.787V224.949V224.919C513.254 224.49 513.59 224.153 514.019 224.153C514.417 224.122 514.754 224.459 514.754 224.888Z" fill="white"/>
<path d="M514.356 231.257L513.988 233.156C513.897 233.554 513.529 233.799 513.131 233.738C512.733 233.646 512.489 233.278 512.55 232.88V232.819L512.886 231.012V230.951C512.948 230.553 513.346 230.277 513.744 230.369C514.172 230.461 514.417 230.859 514.356 231.257Z" fill="white"/>
<path d="M512.55 237.412L511.693 239.158C511.509 239.495 511.111 239.648 510.744 239.464C510.407 239.28 510.254 238.882 510.438 238.515L510.468 238.453L511.264 236.831L511.295 236.769C511.478 236.402 511.876 236.279 512.244 236.432C512.58 236.647 512.733 237.075 512.55 237.412Z" fill="white"/>
<path d="M509.03 242.832L507.591 244.18C507.316 244.425 506.887 244.425 506.642 244.149C506.397 243.874 506.397 243.445 506.673 243.2L506.734 243.139L508.05 241.914L508.111 241.853C508.387 241.608 508.815 241.608 509.091 241.883C509.336 242.128 509.305 242.557 509.03 242.832Z" fill="white"/>
<path d="M503.673 246.507L501.837 247.15C501.5 247.273 501.133 247.089 501.01 246.752C500.888 246.415 501.071 246.048 501.408 245.925L501.469 245.895L503.153 245.282L503.214 245.252C503.551 245.129 503.949 245.313 504.071 245.65C504.224 246.017 504.04 246.385 503.673 246.507Z" fill="white"/>
<path d="M497.368 247.824H495.439C495.103 247.824 494.797 247.548 494.797 247.181C494.797 246.844 495.072 246.538 495.409 246.538H495.47H497.276H497.337C497.704 246.538 497.98 246.813 497.98 247.181C498.01 247.548 497.735 247.824 497.368 247.824Z" fill="white"/>
<path d="M101.714 200.452C96.0819 200.36 91.5824 195.675 91.7048 190.071L92.2864 157.979C92.3782 152.344 97.0614 147.843 102.663 147.965L234.68 150.354C240.312 150.446 244.812 155.131 244.689 160.735L244.108 192.827C244.016 198.461 239.333 202.963 233.731 202.84L101.714 200.452Z" fill="#08724F"/>
<path d="M234.649 153.477L102.632 151.089C98.7143 151.028 95.5004 154.121 95.4085 158.04L94.8269 190.132C94.7657 194.052 97.8573 197.267 101.775 197.359L233.792 199.747C237.71 199.809 240.924 196.716 241.016 192.796L241.598 160.704C241.659 156.785 238.567 153.539 234.649 153.477Z" fill="#83EAC8"/>
<path opacity="0.6" d="M229.691 161.929C229.66 163.766 228.13 165.236 226.293 165.206L129.874 163.46C128.038 163.43 126.569 161.899 126.599 160.061V159.847C126.63 158.01 128.16 156.54 129.997 156.57L226.416 158.316C228.252 158.346 229.721 159.877 229.691 161.715V161.929Z" fill="#399976"/>
<path opacity="0.6" d="M229.415 176.934C229.385 178.771 227.854 180.241 226.018 180.21L129.599 178.465C127.762 178.434 126.293 176.903 126.324 175.066V174.852C126.354 173.014 127.885 171.544 129.721 171.575L226.14 173.32C227.977 173.351 229.446 174.882 229.415 176.72V176.934Z" fill="#399976"/>
<path d="M229.17 191.939C229.14 193.776 227.609 195.246 225.773 195.215L129.354 193.47C127.517 193.439 126.048 191.908 126.079 190.071V189.856C126.109 188.019 127.64 186.549 129.476 186.58L225.895 188.325C227.732 188.356 229.201 189.887 229.17 191.724V191.939Z" fill="#399976"/>
<path opacity="0.6" d="M115.672 156.325L106.458 156.172C104.867 156.142 103.551 157.428 103.52 159.02L103.367 166.829C103.336 168.176 104.408 169.278 105.754 169.309L115.427 169.493C117.019 169.523 118.335 168.237 118.365 166.645L118.488 159.296C118.549 157.673 117.264 156.356 115.672 156.325Z" fill="#399976"/>
<path d="M120.722 199.778C120.722 199.778 138.506 222.561 118.212 245.742L110.591 245.037C110.591 245.037 125.283 221.428 118.733 202.626L107.928 203.422L101.959 199.533L120.722 199.778Z" fill="url(#paint3_linear)"/>
<path d="M110.989 311.364C110.989 311.364 96.5717 342.783 89.0113 355.828C89.0113 355.828 87.5114 364.034 89.0113 366.607L90.2969 367.188L84.3281 367.005C84.3281 367.005 83.8077 355.981 84.2057 355.368C84.6342 354.756 85.4606 354.786 85.4606 354.786C85.4606 354.786 88.0318 334.484 95.4392 330.136L102.632 305.363L110.989 311.364Z" fill="url(#paint4_linear)"/>
<path d="M92.8374 368.72C92.8374 368.873 88.1848 368.811 85.6443 368.75C84.6954 368.72 83.8996 368.077 83.7159 367.158L81.7875 357.083C81.6039 356.134 82.2161 355.185 83.1649 354.97L84.2363 354.725C84.2363 354.725 85.7667 356.807 85.277 358.798C84.7872 360.758 84.3587 365.872 85.5831 366.484C86.8074 367.066 90.2969 367.188 90.2969 367.188C90.2969 367.188 92.7456 367.403 92.8374 368.72Z" fill="url(#paint5_linear)"/>
<path d="M124.64 368.903C125.099 369.179 124.916 369.883 124.365 369.883C120.11 369.852 110.591 369.699 109.734 369.362C108.632 368.903 110.132 364.984 111.693 363.667L120.355 366.484L124.64 368.903Z" fill="url(#paint6_linear)"/>
<path d="M127.334 309.374C127.334 309.374 118.029 354.45 115.396 363.269L121.641 367.188C121.641 367.188 118.519 366.668 116.192 366.484C113.866 366.331 111.754 363.667 111.754 363.667L112.489 362.473C112.489 362.473 114.815 317.642 114.264 312.528L127.334 309.374Z" fill="url(#paint7_linear)"/>
<path d="M150.474 204.187C150.474 204.187 151.76 227.644 130.425 239.617L135.568 251.345C135.568 251.345 154.882 239.648 154.178 207.77C154.147 206.852 154.484 205.964 155.096 205.259L159.198 200.482C160.759 198.676 161.341 196.195 160.759 193.868L160.208 191.694C160.024 190.959 159.198 190.622 158.555 190.989L158.127 191.234C156.749 192.031 155.678 193.225 155.035 194.664L153.015 199.165C152.25 200.85 150.536 201.86 148.699 201.707L147.444 201.585L150.474 204.187Z" fill="url(#paint8_linear)"/>
<path d="M131.129 237.872C127.548 238.852 115.458 242.036 107.897 241.914L112.519 268.096L112.152 272.352L127.273 272.291C127.273 272.291 131.527 262.4 134.894 257.47C135.874 256.061 135.139 254.346 134.588 252.723L135.354 252.233C136.119 251.713 136.455 250.764 136.18 249.875L132.507 238.607C132.323 238.055 131.711 237.719 131.129 237.872Z" fill="url(#paint9_linear)"/>
<path d="M128.528 270.086L128.222 272.658C128.222 272.658 132.507 285.458 126.079 315.345C126.079 315.345 112.213 319.265 100.796 309.864C100.796 309.864 104.01 281.661 104.897 280.344C109.275 273.791 112.182 272.383 112.182 272.383L112.305 269.565C112.335 269.535 124.518 271.77 128.528 270.086Z" fill="url(#paint10_linear)"/>
<path d="M122.589 239.985C122.651 239.923 119.437 230.277 119.437 230.277L114.845 230.706L113.039 241.638C113.039 241.638 120.263 243.077 122.589 239.985Z" fill="url(#paint11_linear)"/>
<path d="M115.947 215.12C116.253 215.303 125.773 219.254 123.722 229.144C123.6 229.726 123.202 230.216 122.681 230.461C121.273 231.074 118.274 232.145 114.692 231.778C109.703 231.257 106.428 222.561 106.581 220.05C106.703 217.508 112.917 213.221 115.947 215.12Z" fill="url(#paint12_linear)"/>
<path d="M115.947 215.12C115.947 215.12 109.672 220.57 111.723 224.214C113.743 227.828 113.07 227.491 113.07 227.491C113.07 227.491 110.346 227.552 112.458 229.389C114.57 231.196 115.855 230.032 115.978 232.145C116.1 234.258 138.812 272.138 125.283 281.6C111.754 291.093 93.572 288.367 88.5215 274.067C83.5016 259.736 99.8469 244.18 99.2653 231.87C98.9898 226.327 101.347 220.54 104.744 216.222C106.336 214.201 108.326 211.935 110.683 210.832C111.815 210.312 113.192 210.036 114.294 210.802C115.182 211.414 116.406 214.017 115.947 215.12Z" fill="url(#paint13_linear)"/>
<g opacity="0.8">
<path opacity="0.8" d="M105.908 283.988C99.7245 283.774 92.9905 278.752 90.8785 272.842C88.5828 266.442 91.3989 259.797 93.9088 253.948L94.3373 252.968C95.378 250.519 96.5106 248.069 97.6125 245.711C98.3471 244.119 99.143 242.465 99.847 240.811C99.8776 240.75 99.9694 240.719 100.031 240.75C100.092 240.781 100.122 240.873 100.092 240.934C99.3572 242.587 98.592 244.241 97.8574 245.833C96.7555 248.191 95.6229 250.641 94.5822 253.091L94.1537 254.071C91.6743 259.889 88.8889 266.442 91.1234 272.75C93.2048 278.568 99.847 283.498 105.908 283.713C105.999 283.713 106.03 283.774 106.03 283.866C106.061 283.958 105.999 283.988 105.908 283.988Z" fill="#91B3FA"/>
<path opacity="0.8" d="M114.937 214.875C114.876 214.875 114.815 214.813 114.784 214.752C114.478 212.639 112.519 211.721 112.519 211.721C112.458 211.69 112.427 211.598 112.458 211.537C112.489 211.476 112.58 211.445 112.642 211.476C112.733 211.506 114.754 212.455 115.09 214.721C115.09 214.783 115.029 214.875 114.937 214.875C114.937 214.875 114.968 214.875 114.937 214.875Z" fill="white"/>
</g>
<path d="M254.148 368.046C250.964 368.321 245.455 368.781 241.077 368.964C238.445 369.087 236.945 368.811 236.088 368.474C236.088 368.566 236.088 368.658 236.088 368.75C236.119 369.209 236.486 369.577 236.945 369.607C245.179 370.067 251.729 369.761 254.056 369.638C254.545 369.607 254.821 369.087 254.576 368.689C254.454 368.444 254.301 368.26 254.148 368.046Z" fill="#4042E2"/>
<path d="M241.077 368.964C245.424 368.781 250.964 368.321 254.147 368.046C251.025 364.218 241.077 361.615 241.077 361.615H238.261C236.333 364.402 236.057 367.035 236.088 368.474C236.945 368.811 238.476 369.087 241.077 368.964Z" fill="#4042E2"/>
<path d="M237.802 357.052L238.078 362.258C238.108 362.809 238.537 363.299 239.088 363.361C239.639 363.452 240.404 363.452 241.2 363.177C241.689 363.024 242.057 362.595 242.149 362.105L243.067 357.052H237.802Z" fill="url(#paint14_linear)"/>
<path d="M201.347 368.934C199.969 368.75 199.327 368.015 199.082 367.25C199.082 367.25 199.082 367.25 199.082 367.28C198.867 368.076 199.357 368.934 200.275 369.332C201.408 369.822 202.663 369.883 203.612 369.853C204.653 369.822 205.601 369.393 206.122 368.689C205.112 369.179 203.673 369.24 201.347 368.934Z" fill="#4042E2"/>
<path d="M207.866 356.991H205.54C202.02 356.93 199.816 364.34 199.081 367.25C199.357 368.015 199.969 368.719 201.346 368.934C203.642 369.24 205.111 369.209 206.152 368.689C208.05 366.178 208.999 362.503 209.458 360.36C209.978 357.91 207.866 356.991 207.866 356.991Z" fill="#4042E2"/>
<path d="M205.846 352.184L204.561 357.297C204.408 357.91 204.714 358.584 205.295 358.859C205.999 359.227 207.04 359.625 207.958 359.502C208.387 359.441 208.754 359.135 208.907 358.737L210.805 353.347L205.846 352.184Z" fill="url(#paint15_linear)"/>
<path d="M204.316 353.653C205.907 355.062 211.111 355.246 211.111 355.246C229.844 310.293 237.496 303.893 237.496 303.893C234.803 320.857 237.068 358.43 237.068 358.43C240.159 359.808 244.138 358.43 244.138 358.43C244.383 330.656 248.668 306.404 253.688 287.296C241.016 287.02 234.313 282.672 232.109 280.926C221.579 297.983 204.316 353.653 204.316 353.653Z" fill="url(#paint16_linear)"/>
<path d="M235.353 229.267C232.966 241.209 233.823 262.614 234.374 272.383C234.527 275.139 232.629 278.936 231.068 281.539C230.823 281.937 230.976 282.457 231.405 282.672C234.007 283.988 242.761 288.122 252.954 288.643C253.627 288.674 254.239 288.214 254.423 287.571C261.953 259.399 270.738 241.393 270.738 241.393C261.034 225.898 235.353 229.267 235.353 229.267Z" fill="#91B3FA"/>
<path d="M238.782 302.852C238.69 302.852 238.567 302.821 238.476 302.76C238.2 302.576 238.108 302.208 238.261 301.933C238.353 301.78 240.771 297.86 245.699 295.472C246.005 295.319 246.342 295.441 246.495 295.747C246.648 296.053 246.526 296.39 246.22 296.543C241.659 298.748 239.333 302.484 239.302 302.545C239.18 302.729 238.996 302.852 238.782 302.852Z" fill="url(#paint17_linear)"/>
<path d="M220.324 263.564C221.09 269.137 223.355 275.2 227.915 281.661L229.63 280.253C229.63 280.253 227.64 272.138 228.772 262.951C225.956 262.431 222.651 262.982 220.324 263.564Z" fill="#91B3FA"/>
<path d="M238.016 244.027L235.353 229.267C235.353 229.267 217.478 242.955 220.324 263.594C222.651 263.012 225.987 262.43 228.773 262.982C229.599 256.337 232.017 249.141 238.016 244.027Z" fill="#91B3FA"/>
<path d="M270.707 241.363L263.82 256.245C264.922 265.217 269.758 269.106 274.962 270.607C275.298 266.503 276.308 263.196 277.288 260.93C270.615 254.04 270.707 241.363 270.707 241.363Z" fill="#91B3FA"/>
<path d="M277.257 260.899C276.308 263.196 275.268 266.503 274.931 270.576C288.797 275.965 292.47 265.523 292.47 265.523L289.899 265.064C284.114 265.676 280.073 263.808 277.257 260.899Z" fill="url(#paint18_linear)"/>
<path d="M264.34 222.989L261.004 235.238C260.637 236.616 259.137 237.351 257.821 236.83C256.382 236.249 254.576 235.483 253.015 234.626C251.362 233.738 250.842 231.594 251.882 230.002L258.8 219.682L264.34 222.989Z" fill="url(#paint19_linear)"/>
<path d="M271.625 213.68C271.656 213.895 268.84 227.675 268.84 227.675L261.004 225.898L261.739 212.455C261.739 212.455 271.105 210.159 271.625 213.68Z" fill="url(#paint20_linear)"/>
<path d="M263.515 215.456L262.566 222.499C262.566 222.591 262.566 222.683 262.566 222.775C262.658 223.326 263.055 225.194 264.953 224.674C266.667 224.184 268.259 223.755 269.361 224.092C269.851 224.245 270.157 224.735 270.034 225.255C269.79 226.511 269.147 229.328 268.228 231.686C268.045 232.176 267.524 232.421 267.035 232.268C265.565 231.839 262.443 230.829 260.148 229.451C259.842 229.267 259.658 228.93 259.658 228.563C259.719 226.786 259.933 221.366 259.78 219.866C259.627 218.457 257.883 217.6 257.117 217.294C256.872 217.202 256.689 216.987 256.566 216.742C256.23 215.854 255.74 213.833 258.311 212.976C258.862 212.792 259.138 212.21 258.954 211.69C258.587 210.618 258.403 209.026 260.393 208.138C262.413 207.219 263.913 208.321 264.739 209.179C265.076 209.546 265.596 209.577 265.994 209.332C266.239 209.179 266.514 209.148 266.882 209.363C267.371 209.669 268.014 209.454 268.259 208.934C268.749 207.954 269.728 206.882 271.718 207.219C275.238 207.831 275.636 211.72 274.687 213.986C273.769 216.253 270.004 215.395 268.106 214.262C266.667 213.374 264.8 214.293 264.004 214.783C263.729 214.905 263.545 215.15 263.515 215.456Z" fill="url(#paint21_linear)"/>
<path d="M259.443 222.377C259.443 222.377 260.881 218.335 259.412 217.355C257.943 216.375 255.739 216.865 256.229 219.805C256.81 223.449 259.443 222.377 259.443 222.377Z" fill="url(#paint22_linear)"/>
<path d="M291.429 267.422C292.133 267.973 294.521 266.84 295.99 266.044C296.694 265.646 297.062 264.819 296.817 264.053C296.449 262.951 295.868 261.512 295.164 261.328C293.939 261.022 288.552 265.186 291.429 267.422Z" fill="url(#paint23_linear)"/>
<path d="M173.676 301.167L356.29 236.187L365.963 263.043L183.41 329.83C179.522 331.238 175.206 329.676 173.125 326.094C170.982 322.419 168.962 316.693 168.84 308.119C168.779 305.026 170.738 302.209 173.676 301.167Z" fill="url(#paint24_linear)"/>
<path d="M412.794 229.267L387.573 232.36C387.603 235.82 388.736 240.321 392.592 245.497L413.652 231.594C414.753 230.829 414.111 229.083 412.794 229.267Z" fill="url(#paint25_linear)"/>
<path d="M356.29 236.187C355.127 252.999 365.962 263.043 365.962 263.043L392.592 245.466C388.736 240.321 387.603 235.82 387.573 232.329L356.29 236.187Z" fill="url(#paint26_linear)"/>
<path d="M175.941 309.405C175.727 309.405 175.513 309.282 175.421 309.037C175.329 308.762 175.482 308.455 175.757 308.363L350.474 246.599C350.75 246.507 351.056 246.66 351.148 246.936C351.24 247.211 351.086 247.518 350.811 247.609L176.094 309.374C176.064 309.405 176.002 309.405 175.941 309.405Z" fill="url(#paint27_linear)"/>
<path d="M178.971 319.939C178.757 319.939 178.543 319.816 178.451 319.571C178.359 319.296 178.512 318.989 178.788 318.897L353.505 257.133C353.78 257.041 354.086 257.194 354.178 257.47C354.27 257.745 354.117 258.052 353.841 258.143L179.124 319.908C179.094 319.939 179.033 319.939 178.971 319.939Z" fill="url(#paint28_linear)"/>
<path d="M228.926 280.008L237.006 279.364L240.496 282.58C240.496 282.58 239.669 283.713 237.098 283.07C234.527 282.427 230.976 282.243 230.976 282.243C230.976 282.243 227.395 283.866 227.365 280.834L228.926 280.008Z" fill="url(#paint29_linear)"/>
<path d="M498.653 252.601C498.653 252.601 499.235 255.877 499.51 259.093C499.633 260.348 498.653 261.451 497.368 261.512C493.052 261.696 483.838 262.032 480.533 261.879C480.043 261.849 479.706 261.359 479.89 260.899C480.043 260.501 480.349 260.195 480.716 260.011L495.929 252.999L498.653 252.601Z" fill="url(#paint30_linear)"/>
<path d="M499.112 250.672L498.653 254.591C498.653 254.591 495.99 255.847 494.154 254.438L495.256 250.09L499.112 250.672Z" fill="url(#paint31_linear)"/>
<path d="M498.776 177.179C498.99 178.189 499.847 228.134 494.521 250.519C494.429 250.886 494.613 251.253 494.98 251.407C495.807 251.743 497.398 252.233 499.327 252.295C499.908 252.325 500.459 251.927 500.612 251.345C502.143 246.14 509.458 220.142 510.407 195.276C511.478 167.502 510.407 194.327 510.407 194.327L509.795 177.148L498.776 177.179Z" fill="url(#paint32_linear)"/>
<path d="M516.162 254.316C516.162 254.316 517.08 255.969 517.967 260.348C518.12 261.144 517.57 261.91 516.774 261.971C515.366 262.124 513.162 262.277 511.417 262.277C510.621 262.277 509.978 261.573 510.07 260.777C510.254 259.185 510.866 256.551 512.733 254.499L516.162 254.316Z" fill="url(#paint33_linear)"/>
<path d="M516.957 249.294L515.886 255.204C515.886 255.204 514.815 256 512.703 255.418L513.223 249.049L516.957 249.294Z" fill="url(#paint34_linear)"/>
<path d="M519.896 178.71C524.273 205.045 518.947 243.812 517.172 251.407C517.049 251.866 516.682 252.233 516.223 252.295C515.427 252.417 514.111 252.54 512.795 252.172C512.336 252.05 512.029 251.652 512.029 251.162C511.785 245.037 512.213 207.372 508.142 192.49C507.928 191.724 507.469 191.081 506.826 190.622L498.929 185.018L498.317 175.954L519.896 178.71Z" fill="url(#paint35_linear)"/>
<path d="M492.103 128.796C505.173 128.582 519.62 132.226 519.62 132.226C523.508 154.978 520.294 181.221 520.294 181.221C510.162 183.885 498.745 179.598 498.745 179.598C497.061 170.075 489.226 143.311 489.226 143.311C482.828 142.515 477.563 140.677 473.248 138.228C476.553 134.4 478.114 129.5 478.788 126.622C483.379 128.092 488.062 128.857 492.103 128.796Z" fill="url(#paint36_linear)"/>
<path d="M453.474 109.504C454.76 107.943 456.382 108.677 456.382 108.677C458.31 116.823 468.411 123.407 478.757 126.622C478.084 129.5 476.523 134.369 473.217 138.228C456.015 128.551 453.474 109.504 453.474 109.504Z" fill="url(#paint37_linear)"/>
<path d="M453.78 109.902C453.658 110.331 455.188 110.974 456.106 109.229C456.137 108.402 456.657 104.788 456.137 104.115C453.474 100.471 448.301 95.9081 448.301 95.9081C447.413 96.7655 448.148 97.6229 448.148 97.6229L450.658 100.226C450.138 101.175 449.495 101.971 449.189 103.135C448.974 103.992 449.097 104.942 449.525 105.707C449.954 106.503 450.566 107.544 451.148 108.341C452.25 109.902 453.78 109.902 453.78 109.902Z" fill="url(#paint38_linear)"/>
<path d="M451.76 101.941L454.056 103.87L454.76 105.799L452.709 108.065C452.709 108.065 452.035 104.237 451.515 103.41C451.025 102.584 451.301 102.186 451.76 101.941Z" fill="url(#paint39_linear)"/>
<path d="M514.57 144.873L519.59 132.195C519.59 132.195 531.803 140.494 533.823 151.028C531.527 151.211 527.303 151.793 523.202 153.876C522.283 148.915 514.57 144.873 514.57 144.873Z" fill="url(#paint40_linear)"/>
<path d="M503.918 156.815C503.918 156.815 517.631 164.563 522.253 157.948C523.202 156.57 523.447 155.192 523.202 153.906C527.303 151.824 531.527 151.242 533.823 151.058C534.435 154.243 534.098 157.611 532.231 161.01C524.12 175.831 502.081 160.184 502.081 160.184L503.918 156.815Z" fill="url(#paint41_linear)"/>
<path d="M505.54 166.614L498.041 140.463C497.949 140.157 497.704 139.943 497.398 139.912C496.051 139.759 492.103 139.299 487.573 138.932C482.094 138.473 475.758 138.105 471.962 138.411C471.411 138.442 471.105 139.024 471.35 139.514C473.493 143.893 482.369 161.623 486.807 167.441C486.961 167.625 487.175 167.747 487.42 167.747L504.775 167.594C505.326 167.594 505.693 167.104 505.54 166.614Z" fill="url(#paint42_linear)"/>
<path d="M486.838 136.666L481.42 135.747C481.145 135.686 480.9 135.962 480.992 136.268L481.543 137.891C481.604 138.044 481.726 138.136 481.849 138.166L487.083 138.871C487.358 138.901 487.573 138.656 487.511 138.381L487.175 136.972C487.114 136.819 486.991 136.697 486.838 136.666Z" fill="#7D97F4"/>
<path d="M490.879 141.259L490.419 138.932C490.389 138.687 490.174 138.534 489.96 138.503L479.002 137.401C478.635 137.37 478.329 137.707 478.421 138.075L479.125 140.984C479.186 141.229 479.369 141.382 479.614 141.382L490.328 141.933C490.695 141.902 490.97 141.596 490.879 141.259Z" fill="#7D97F4"/>
<path d="M503.734 160.306C503.734 160.306 504.775 156.019 504.346 154.488C503.918 152.957 503.122 150.997 500.398 151.456C497.674 151.885 494.49 153.049 494.49 153.049C494.49 153.049 494.643 155.039 496.725 154.396L495.439 155.376C495.439 155.376 495.623 156.968 497.368 156.111L496.174 157.428C496.174 157.428 496.908 158.744 498.194 157.887C499.48 157.03 500.122 160.827 503.734 160.306Z" fill="url(#paint43_linear)"/>
<path d="M505.326 118.17L509.489 130.205C509.55 130.419 509.489 130.633 509.305 130.725C508.173 131.338 504.071 133.175 499.173 130.052C498.653 129.715 498.316 129.194 498.225 128.582L496.878 118.17H505.326Z" fill="url(#paint44_linear)"/>
<path d="M491.429 115.016C491.429 115.016 493.021 124.632 495.592 127.02C498.163 129.409 502.51 125.795 504.714 120.528L501.806 111.035L491.429 115.016Z" fill="url(#paint45_linear)"/>
<path d="M501.806 117.037C501.592 117.098 501.377 116.945 501.377 116.731C501.316 116.057 501.194 114.741 500.735 113.822C500.735 113.822 501.071 112.903 498.316 114.128C495.592 115.353 491.46 117.129 489.256 115.721C487.083 114.343 485.246 108.096 491.154 109.657C491.368 109.719 491.613 109.565 491.613 109.321C491.613 108.31 491.889 106.013 494.276 105.462C496.51 104.942 497.612 106.013 498.072 106.626C498.194 106.809 498.469 106.84 498.622 106.656C499.326 105.86 501.255 104.176 503.765 105.523C505.846 106.626 506.06 107.973 505.969 108.8C505.938 109.076 506.183 109.259 506.458 109.167C507.132 108.922 508.203 108.831 509.121 110.178C510.376 112.046 508.264 113.424 507.652 113.761C507.56 113.822 507.468 113.914 507.468 114.036C507.407 114.955 506.948 118.905 504.775 121.018C504.591 121.202 504.285 121.11 504.193 120.865L502.938 117.098C502.877 116.915 502.693 116.823 502.51 116.854L501.806 117.037Z" fill="url(#paint46_linear)"/>
<path d="M501.714 117.772C501.714 117.772 502.938 114.006 504.285 115.384C505.601 116.731 503.612 119.334 501.928 119.732L501.714 117.772Z" fill="url(#paint47_linear)"/>
<path d="M474.196 371.72C474.931 371.72 475.513 371.322 475.513 370.832V263.012C475.513 262.522 474.931 262.124 474.196 262.124C473.462 262.124 472.88 262.522 472.88 263.012V370.832C472.88 371.322 473.462 371.72 474.196 371.72Z" fill="#08724F"/>
<path d="M510.223 371.72C510.958 371.72 511.54 371.322 511.54 370.832V263.012C511.54 262.522 510.958 262.124 510.223 262.124C509.489 262.124 508.907 262.522 508.907 263.012V370.832C508.877 371.322 509.489 371.72 510.223 371.72Z" fill="#08724F"/>
<path d="M598.684 372.394C598.867 372.394 599.02 372.363 599.204 372.333C599.877 372.149 600.184 371.598 599.908 371.138L531.956 262.645C531.681 262.185 530.885 261.971 530.211 262.155C529.538 262.339 529.232 262.89 529.507 263.349L597.459 371.843C597.674 372.18 598.163 372.394 598.684 372.394Z" fill="#08724F"/>
<path d="M556.719 372.394C556.902 372.394 557.056 372.363 557.239 372.333C557.913 372.149 558.219 371.598 557.943 371.138L489.991 262.645C489.715 262.185 488.92 261.971 488.246 262.155C487.573 262.339 487.267 262.89 487.542 263.349L555.494 371.843C555.709 372.18 556.198 372.394 556.719 372.394Z" fill="#08724F"/>
<path d="M471.533 263.992H534.986C535.69 263.992 536.272 263.41 536.272 262.706C536.272 262.002 535.69 261.42 534.986 261.42H471.533C470.829 261.42 470.248 262.002 470.248 262.706C470.279 263.41 470.829 263.992 471.533 263.992Z" fill="#08724F"/>
<path d="M499.021 280.497H541.108C541.843 280.497 542.424 280.099 542.424 279.609C542.424 279.119 541.843 278.721 541.108 278.721H499.021C498.286 278.721 497.704 279.119 497.704 279.609C497.704 280.099 498.286 280.497 499.021 280.497Z" fill="#08724F"/>
<path d="M554.025 299.208H511.938V301.014H554.025V299.208Z" fill="#08724F"/>
<path d="M566.544 319.724H524.457V321.531H566.544V319.724Z" fill="#08724F"/>
<path d="M537.557 342.048H579.645C580.38 342.048 580.961 341.65 580.961 341.16C580.961 340.67 580.38 340.272 579.645 340.272H537.557C536.823 340.272 536.241 340.67 536.241 341.16C536.241 341.65 536.823 342.048 537.557 342.048Z" fill="#08724F"/>
<path d="M550.23 362.564H592.317C593.052 362.564 593.633 362.166 593.633 361.676C593.633 361.186 593.052 360.788 592.317 360.788H550.23C549.495 360.788 548.913 361.186 548.913 361.676C548.913 362.166 549.495 362.564 550.23 362.564Z" fill="#08724F"/>
</g>
<defs>
<linearGradient id="paint0_linear" x1="340.856" y1="-35.1041" x2="249.639" y2="366.651" gradientUnits="userSpaceOnUse">
<stop stop-color="#065239"/>
<stop offset="1" stop-color="#065239"/>
</linearGradient>
<linearGradient id="paint1_linear" x1="419.729" y1="96.0312" x2="400.943" y2="134.405" gradientUnits="userSpaceOnUse">
<stop stop-color="#FE7062"/>
<stop offset="1" stop-color="#FF928E"/>
</linearGradient>
<linearGradient id="paint2_linear" x1="424.892" y1="151.759" x2="406.106" y2="191.358" gradientUnits="userSpaceOnUse">
<stop stop-color="#FE7062"/>
<stop offset="1" stop-color="#FF928E"/>
</linearGradient>
<linearGradient id="paint3_linear" x1="108.274" y1="196.89" x2="121.073" y2="236.107" gradientUnits="userSpaceOnUse">
<stop stop-color="#FF928E"/>
<stop offset="1" stop-color="#FEB3B1"/>
</linearGradient>
<linearGradient id="paint4_linear" x1="110.981" y1="336.26" x2="84.0322" y2="336.26" gradientUnits="userSpaceOnUse">
<stop stop-color="#FF928E"/>
<stop offset="1" stop-color="#FEB3B1"/>
</linearGradient>
<linearGradient id="paint5_linear" x1="143.908" y1="560.654" x2="164.432" y2="631.693" gradientUnits="userSpaceOnUse">
<stop stop-color="#4042E2"/>
<stop offset="1" stop-color="#4F52FF"/>
</linearGradient>
<linearGradient id="paint6_linear" x1="170.272" y1="553.034" x2="190.796" y2="624.073" gradientUnits="userSpaceOnUse">
<stop stop-color="#4042E2"/>
<stop offset="1" stop-color="#4F52FF"/>
</linearGradient>
<linearGradient id="paint7_linear" x1="127.334" y1="338.265" x2="111.728" y2="338.265" gradientUnits="userSpaceOnUse">
<stop stop-color="#FF928E"/>
<stop offset="1" stop-color="#FEB3B1"/>
</linearGradient>
<linearGradient id="paint8_linear" x1="160.951" y1="221.132" x2="130.4" y2="221.132" gradientUnits="userSpaceOnUse">
<stop stop-color="#FF928E"/>
<stop offset="1" stop-color="#FEB3B1"/>
</linearGradient>
<linearGradient id="paint9_linear" x1="222.269" y1="534.872" x2="258.108" y2="634.996" gradientUnits="userSpaceOnUse">
<stop stop-color="#FE7062"/>
<stop offset="1" stop-color="#FF928E"/>
</linearGradient>
<linearGradient id="paint10_linear" x1="204.518" y1="541.225" x2="240.358" y2="641.35" gradientUnits="userSpaceOnUse">
<stop stop-color="#FE7062"/>
<stop offset="1" stop-color="#FF928E"/>
</linearGradient>
<linearGradient id="paint11_linear" x1="122.603" y1="236.138" x2="113.053" y2="236.138" gradientUnits="userSpaceOnUse">
<stop stop-color="#FF928E"/>
<stop offset="1" stop-color="#FEB3B1"/>
</linearGradient>
<linearGradient id="paint12_linear" x1="107.425" y1="223.791" x2="37.9147" y2="228.516" gradientUnits="userSpaceOnUse">
<stop stop-color="#FF928E"/>
<stop offset="1" stop-color="#FEB3B1"/>
</linearGradient>
<linearGradient id="paint13_linear" x1="128.508" y1="222.446" x2="91.0793" y2="297.271" gradientUnits="userSpaceOnUse">
<stop stop-color="#09005D"/>
<stop offset="1" stop-color="#1A0F91"/>
</linearGradient>
<linearGradient id="paint14_linear" x1="237.802" y1="360.222" x2="243.036" y2="360.222" gradientUnits="userSpaceOnUse">
<stop stop-color="#FF928E"/>
<stop offset="1" stop-color="#FEB3B1"/>
</linearGradient>
<linearGradient id="paint15_linear" x1="204.528" y1="355.857" x2="210.783" y2="355.857" gradientUnits="userSpaceOnUse">
<stop stop-color="#FF928E"/>
<stop offset="1" stop-color="#FEB3B1"/>
</linearGradient>
<linearGradient id="paint16_linear" x1="252.894" y1="298.2" x2="183.614" y2="399.124" gradientUnits="userSpaceOnUse">
<stop stop-color="#09005D"/>
<stop offset="1" stop-color="#1A0F91"/>
</linearGradient>
<linearGradient id="paint17_linear" x1="225.607" y1="332.682" x2="228.606" y2="326.686" gradientUnits="userSpaceOnUse">
<stop stop-color="#53D8FF"/>
<stop offset="1" stop-color="#3840F7"/>
</linearGradient>
<linearGradient id="paint18_linear" x1="274.928" y1="266.508" x2="292.464" y2="266.508" gradientUnits="userSpaceOnUse">
<stop stop-color="#FF928E"/>
<stop offset="1" stop-color="#FEB3B1"/>
</linearGradient>
<linearGradient id="paint19_linear" x1="257.882" y1="219.624" x2="257.69" y2="252.386" gradientUnits="userSpaceOnUse">
<stop stop-color="#FF928E"/>
<stop offset="1" stop-color="#FEB3B1"/>
</linearGradient>
<linearGradient id="paint20_linear" x1="319.32" y1="223.997" x2="293.914" y2="221.855" gradientUnits="userSpaceOnUse">
<stop stop-color="#FF928E"/>
<stop offset="1" stop-color="#FEB3B1"/>
</linearGradient>
<linearGradient id="paint21_linear" x1="257.06" y1="221.089" x2="276.117" y2="218.341" gradientUnits="userSpaceOnUse">
<stop stop-color="#09005D"/>
<stop offset="1" stop-color="#1A0F91"/>
</linearGradient>
<linearGradient id="paint22_linear" x1="247.554" y1="234.331" x2="258.462" y2="219.354" gradientUnits="userSpaceOnUse">
<stop stop-color="#FF928E"/>
<stop offset="1" stop-color="#FEB3B1"/>
</linearGradient>
<linearGradient id="paint23_linear" x1="290.601" y1="264.447" x2="296.881" y2="264.447" gradientUnits="userSpaceOnUse">
<stop stop-color="#FF928E"/>
<stop offset="1" stop-color="#FEB3B1"/>
</linearGradient>
<linearGradient id="paint24_linear" x1="360.584" y1="215.688" x2="95.6341" y2="408.883" gradientUnits="userSpaceOnUse">
<stop stop-color="#FE7062"/>
<stop offset="1" stop-color="#FF928E"/>
</linearGradient>
<linearGradient id="paint25_linear" x1="411.779" y1="208.349" x2="380.997" y2="274.02" gradientUnits="userSpaceOnUse">
<stop stop-color="#E1473D"/>
<stop offset="1" stop-color="#E9605A"/>
</linearGradient>
<linearGradient id="paint26_linear" x1="400.374" y1="214.178" x2="271.14" y2="346.935" gradientUnits="userSpaceOnUse">
<stop stop-color="#FF928E"/>
<stop offset="1" stop-color="#FEB3B1"/>
</linearGradient>
<linearGradient id="paint27_linear" x1="321.599" y1="218.055" x2="204.969" y2="337.865" gradientUnits="userSpaceOnUse">
<stop stop-color="#A737D5"/>
<stop offset="1" stop-color="#EF497A"/>
</linearGradient>
<linearGradient id="paint28_linear" x1="324.613" y1="228.588" x2="207.983" y2="348.398" gradientUnits="userSpaceOnUse">
<stop stop-color="#A737D5"/>
<stop offset="1" stop-color="#EF497A"/>
</linearGradient>
<linearGradient id="paint29_linear" x1="241.979" y1="274.576" x2="219.704" y2="294.293" gradientUnits="userSpaceOnUse">
<stop stop-color="#FF928E"/>
<stop offset="1" stop-color="#FEB3B1"/>
</linearGradient>
<linearGradient id="paint30_linear" x1="489.237" y1="248.674" x2="489.85" y2="264.189" gradientUnits="userSpaceOnUse">
<stop stop-color="#09005D"/>
<stop offset="1" stop-color="#1A0F91"/>
</linearGradient>
<linearGradient id="paint31_linear" x1="499.127" y1="252.59" x2="494.176" y2="252.59" gradientUnits="userSpaceOnUse">
<stop stop-color="#FF928E"/>
<stop offset="1" stop-color="#FEB3B1"/>
</linearGradient>
<linearGradient id="paint32_linear" x1="510.866" y1="214.721" x2="494.497" y2="214.721" gradientUnits="userSpaceOnUse">
<stop stop-color="#09005D"/>
<stop offset="1" stop-color="#1A0F91"/>
</linearGradient>
<linearGradient id="paint33_linear" x1="513.511" y1="247.715" x2="514.124" y2="263.23" gradientUnits="userSpaceOnUse">
<stop stop-color="#09005D"/>
<stop offset="1" stop-color="#1A0F91"/>
</linearGradient>
<linearGradient id="paint34_linear" x1="516.968" y1="252.336" x2="512.694" y2="252.336" gradientUnits="userSpaceOnUse">
<stop stop-color="#FF928E"/>
<stop offset="1" stop-color="#FEB3B1"/>
</linearGradient>
<linearGradient id="paint35_linear" x1="521.576" y1="214.185" x2="498.337" y2="214.185" gradientUnits="userSpaceOnUse">
<stop stop-color="#09005D"/>
<stop offset="1" stop-color="#1A0F91"/>
</linearGradient>
<linearGradient id="paint36_linear" x1="789.712" y1="-24.2187" x2="825.635" y2="-46.253" gradientUnits="userSpaceOnUse">
<stop stop-color="#FE7062"/>
<stop offset="1" stop-color="#FF928E"/>
</linearGradient>
<linearGradient id="paint37_linear" x1="465.784" y1="86.5455" x2="465.988" y2="106.348" gradientUnits="userSpaceOnUse">
<stop stop-color="#FF928E"/>
<stop offset="1" stop-color="#FEB3B1"/>
</linearGradient>
<linearGradient id="paint38_linear" x1="452.083" y1="105.882" x2="451.879" y2="125.684" gradientUnits="userSpaceOnUse">
<stop stop-color="#FF928E"/>
<stop offset="1" stop-color="#FEB3B1"/>
</linearGradient>
<linearGradient id="paint39_linear" x1="461.221" y1="90.6777" x2="445.907" y2="115.782" gradientUnits="userSpaceOnUse">
<stop stop-color="#FF928E"/>
<stop offset="1" stop-color="#FEB3B1"/>
</linearGradient>
<linearGradient id="paint40_linear" x1="791.671" y1="-21.0262" x2="827.594" y2="-43.0606" gradientUnits="userSpaceOnUse">
<stop stop-color="#FE7062"/>
<stop offset="1" stop-color="#FF928E"/>
</linearGradient>
<linearGradient id="paint41_linear" x1="535.108" y1="146.395" x2="510.511" y2="165.472" gradientUnits="userSpaceOnUse">
<stop stop-color="#FF928E"/>
<stop offset="1" stop-color="#FEB3B1"/>
</linearGradient>
<linearGradient id="paint42_linear" x1="508.041" y1="167.201" x2="484.26" y2="146.899" gradientUnits="userSpaceOnUse">
<stop stop-color="#09005D"/>
<stop offset="1" stop-color="#1A0F91"/>
</linearGradient>
<linearGradient id="paint43_linear" x1="507.75" y1="140.964" x2="503.258" y2="149.128" gradientUnits="userSpaceOnUse">
<stop stop-color="#FF928E"/>
<stop offset="1" stop-color="#FEB3B1"/>
</linearGradient>
<linearGradient id="paint44_linear" x1="501.228" y1="118.339" x2="508.988" y2="151.001" gradientUnits="userSpaceOnUse">
<stop stop-color="#FF928E"/>
<stop offset="1" stop-color="#FEB3B1"/>
</linearGradient>
<linearGradient id="paint45_linear" x1="568.659" y1="423.648" x2="563.797" y2="402.606" gradientUnits="userSpaceOnUse">
<stop stop-color="#FF928E"/>
<stop offset="1" stop-color="#FEB3B1"/>
</linearGradient>
<linearGradient id="paint46_linear" x1="501.846" y1="97.5684" x2="496.198" y2="119.776" gradientUnits="userSpaceOnUse">
<stop stop-color="#09005D"/>
<stop offset="1" stop-color="#1A0F91"/>
</linearGradient>
<linearGradient id="paint47_linear" x1="573.61" y1="422.507" x2="568.748" y2="401.464" gradientUnits="userSpaceOnUse">
<stop stop-color="#FF928E"/>
<stop offset="1" stop-color="#FEB3B1"/>
</linearGradient>
<clipPath id="clip0">
<rect width="600" height="372.517" fill="white"/>
</clipPath>
</defs>
</svg>
